<svg width="363" height="61" viewBox="0 0 363 61" fill="none" xmlns="http://www.w3.org/2000/svg">
<path d="M285.64 33H283C282.36 33 281.84 32.6 281.56 32.04C280.68 30.32 279 29.4 277.2 29.4C274.12 29.4 271.84 32.04 271.84 35.8C271.84 39.64 274.12 42.24 277.2 42.24C279.12 42.24 280.96 41.2 281.88 39.04C282.12 38.44 282.64 38 283.32 38H285.88C286.72 38 287.24 38.44 287.24 39.16C287.24 39.28 287.24 39.44 287.2 39.56C285.8 44.44 281.64 46.6 277.16 46.6C271.08 46.6 266.32 42.32 266.32 35.8C266.32 29.4 271.04 25 277.16 25C281.92 25 285.52 27.6 286.88 31.4C286.92 31.56 286.96 31.72 286.96 31.88C286.96 32.56 286.4 33 285.64 33ZM293.188 46H290.588C289.748 46 289.188 45.44 289.188 44.6V27C289.188 26.16 289.748 25.6 290.588 25.6H293.188C294.028 25.6 294.588 26.16 294.588 27V44.6C294.588 45.44 294.028 46 293.188 46ZM291.908 23.24C290.068 23.24 288.748 21.92 288.748 20.24C288.748 18.52 290.068 17.2 291.908 17.2C293.708 17.2 295.068 18.52 295.068 20.24C295.068 21.92 293.708 23.24 291.908 23.24ZM297.305 44.6V19.4C297.305 18.56 297.865 18 298.705 18H301.305C302.145 18 302.705 18.56 302.705 19.4V32.72L309.105 26.28C309.585 25.76 310.065 25.6 310.665 25.6H313.305C314.465 25.6 314.785 25.92 314.785 26.48C314.785 26.88 314.505 27.32 313.945 27.88L308.705 33.04L316.225 43.8C316.545 44.28 316.705 44.68 316.705 45C316.705 45.64 316.145 46 315.105 46H312.145C311.705 46 311.225 45.76 310.985 45.36L305.225 36.56L302.705 39V44.6C302.705 45.44 302.145 46 301.305 46H298.705C297.865 46 297.305 45.44 297.305 44.6ZM332.799 45.24V42.44C331.319 44.4 328.759 45.4 326.079 45.4C320.639 45.4 317.039 40.92 317.039 35.2C317.039 29.36 320.679 25 326.119 25C329.039 25 331.359 26.16 332.959 28.04V26.8C332.959 26.08 333.479 25.6 334.239 25.6H336.799C337.639 25.6 338.199 26.16 338.199 27V44.92C338.199 50.32 334.839 54.12 327.919 54.12C323.319 54.12 319.759 52.36 318.359 48.6C318.279 48.44 318.239 48.24 318.239 48.08C318.239 47.44 318.799 47 319.599 47H321.999C322.679 47 323.199 47.44 323.519 48.04C324.279 49.44 325.959 49.96 327.879 49.96C330.759 49.96 332.799 48.6 332.799 45.24ZM322.559 35.2C322.559 38.6 324.759 41.04 327.839 41.04C330.879 41.04 333.079 38.6 333.079 35.2C333.079 31.84 330.919 29.4 327.839 29.4C324.719 29.4 322.559 31.88 322.559 35.2ZM339.882 35.8C339.882 29.52 344.483 25 350.763 25C356.963 25 361.643 29.48 361.643 35.8C361.643 42.12 357.003 46.6 350.763 46.6C344.483 46.6 339.882 42.12 339.882 35.8ZM345.403 35.8C345.403 39.68 347.643 42.24 350.763 42.24C353.843 42.24 356.123 39.68 356.123 35.8C356.123 31.96 353.843 29.4 350.763 29.4C347.643 29.4 345.403 31.96 345.403 35.8Z" fill="black"/>
<path d="M251.822 39.9282C250.686 39.3584 248.953 38.761 246.626 38.2191C241.592 37.0467 234.475 36.2912 226.5 36.2912C218.525 36.2912 211.408 37.0467 206.374 38.2191C204.047 38.761 202.314 39.3584 201.178 39.9282C202.314 40.498 204.047 41.0954 206.374 41.6373V44.9509C200.606 43.697 197 41.9107 197 39.9282C197 36.1341 210.208 33.0583 226.5 33.0583C242.792 33.0583 256 36.1341 256 39.9282C256 41.9107 252.394 43.697 246.626 44.9509V41.6373C248.953 41.0954 250.686 40.498 251.822 39.9282Z" fill="black"/>
<path d="M226.5 57.6427C236.99 57.6427 245.493 50.0276 245.493 40.6339C245.493 39.133 245.276 37.6775 244.868 36.2912L248.36 37.015C248.6 38.1885 248.726 39.398 248.726 40.6339C248.726 51.6265 238.775 60.5378 226.5 60.5378C214.225 60.5378 204.274 51.6265 204.274 40.6339C204.274 39.398 204.4 38.1885 204.64 37.015L208.132 36.2912C207.724 37.6775 207.507 39.133 207.507 40.6339C207.507 50.0276 216.01 57.6427 226.5 57.6427Z" fill="black"/>
<path d="M215.993 22.3697L214.125 19.7227C209.246 22.7545 205.523 27.4705 203.768 33.0583L207.858 31.4419C209.619 27.6754 212.465 24.5174 215.993 22.3697Z" fill="black"/>
<path d="M236.351 21.5568L237.007 18.2843C243.192 21.1231 247.977 26.4881 250.041 33.0583L245.95 31.4419C243.951 27.1674 240.556 23.6767 236.351 21.5568Z" fill="black"/>
<path fill-rule="evenodd" clip-rule="evenodd" d="M218.014 39.5241C218.906 39.5241 219.63 40.2478 219.63 41.1405V45.1816C219.63 46.0744 218.906 46.7981 218.014 46.7981C217.121 46.7981 216.397 46.0744 216.397 45.1816V41.1405C216.397 40.2478 217.121 39.5241 218.014 39.5241Z" fill="black"/>
<path fill-rule="evenodd" clip-rule="evenodd" d="M234.986 39.5241C235.879 39.5241 236.603 40.2478 236.603 41.1405V45.1816C236.603 46.0744 235.879 46.7981 234.986 46.7981C234.094 46.7981 233.37 46.0744 233.37 45.1816V41.1405C233.37 40.2478 234.094 39.5241 234.986 39.5241Z" fill="black"/>
<path fill-rule="evenodd" clip-rule="evenodd" d="M247.268 9.87152C247.946 9.29064 248.517 8.60881 248.96 7.85276C249.07 7.66469 249.172 7.47203 249.266 7.27518C249.068 7.1671 248.866 7.06722 248.66 6.97576C247.901 6.63886 247.092 6.41609 246.263 6.3171C246.205 6.31016 246.147 6.30384 246.089 6.29814C245.091 6.2003 244.087 6.28323 243.132 6.543L243.132 6.55383C242.418 6.77701 241.753 7.10659 241.16 7.52776C240.789 7.79171 240.446 8.09164 240.137 8.42388C239.995 8.65528 239.836 8.87631 239.66 9.08523L239.388 9.36562L239.387 9.41975C239.222 9.65802 239.069 9.9044 238.931 10.1579C239.713 10.3743 240.462 10.6876 241.159 11.0887C241.359 11.2038 241.554 11.3262 241.745 11.4556C241.795 11.462 241.844 11.4679 241.894 11.4733C241.908 11.4748 241.922 11.4763 241.936 11.4777C242.255 11.5101 242.576 11.5201 242.896 11.5076C243.564 11.513 244.227 11.4223 244.861 11.2386C245.672 10.9713 246.42 10.5641 247.067 10.0375C247.135 9.98313 247.202 9.9278 247.268 9.87152ZM249.127 12.572C250.423 11.5301 251.471 10.2183 252.186 8.71833L253.511 5.94119L250.767 4.4424C249.467 3.73234 248.043 3.2794 246.58 3.10473C245.116 2.93007 243.636 3.03619 242.226 3.41953L239.96 4.03549L239.95 4.42441C239.139 4.90505 238.397 5.4985 237.751 6.19324L237.537 6.42389L237.372 6.69293C237.329 6.76432 237.28 6.83425 237.227 6.90228L236.189 7.97345L236.179 8.40024C236.148 8.45397 236.118 8.50796 236.089 8.5622L234.123 12.1657L238.131 13.275C238.797 13.4593 239.419 13.7479 239.972 14.1228L240.622 14.5634L241.395 14.6638C241.932 14.7336 242.473 14.7601 243.013 14.743C243.964 14.7437 244.909 14.6111 245.818 14.3478L245.873 14.3318L245.928 14.3138C247.093 13.9297 248.179 13.3418 249.127 12.572Z" fill="black"/>
<path fill-rule="evenodd" clip-rule="evenodd" d="M240.657 0.460908L237.922 0.0962097C236.426 -0.103214 234.902 0.00737972 233.456 0.428057C232.009 0.848868 230.667 1.57226 229.533 2.56158C228.398 3.55161 227.501 4.78251 226.919 6.17276C226.337 7.56363 226.091 9.06723 226.197 10.572L226.39 13.3006L229.111 13.5664C231.829 13.8319 234.57 13.1352 236.785 11.5557L237.05 11.3669L237.272 11.1289C237.437 10.9521 237.618 10.7861 237.815 10.633L238.087 10.4208L238.308 10.1556C239.933 8.20884 240.797 5.75744 240.73 3.2205L240.657 0.460908ZM237.207 5.51486C237.109 5.84507 236.987 6.16817 236.841 6.48185C236.578 7.05043 236.238 7.58809 235.826 8.08109C235.497 8.33782 235.19 8.6187 234.908 8.9212C234.219 9.41215 233.452 9.78557 232.64 10.0327C232.492 10.0779 232.342 10.1189 232.19 10.1556C231.298 10.3721 230.361 10.4399 229.421 10.348C229.371 9.63174 229.44 8.91699 229.625 8.22974C229.699 7.95648 229.791 7.68756 229.901 7.42462C229.94 7.33207 229.98 7.24048 230.023 7.14991C230.409 6.33617 230.965 5.60533 231.658 5.00018C232.406 4.34836 233.296 3.85785 234.269 3.561C234.3 3.55159 234.331 3.54237 234.362 3.53334C234.598 3.46449 234.838 3.40744 235.081 3.36226C235.873 3.21478 236.69 3.19371 237.499 3.30158C237.519 4.05701 237.419 4.80248 237.207 5.51486Z" fill="black"/>
<path fill-rule="evenodd" clip-rule="evenodd" d="M243.48 17.9061L241.796 15.3342C240.81 13.8279 239.487 12.5596 237.941 11.6158C236.916 10.9859 235.788 10.5447 234.618 10.3084L234.576 10.3L234.534 10.2926C233.303 10.0767 232.049 10.0854 230.837 10.3167L229.806 10.5135L229.114 11.2783C229.114 11.2776 229.115 11.2772 229.115 11.2772C229.114 11.2771 229.067 11.3258 228.938 11.4207C228.803 11.5209 228.627 11.6374 228.403 11.7736C228.179 11.9097 227.942 12.0453 227.677 12.1956C227.658 12.2066 227.638 12.2178 227.618 12.2291C227.384 12.3622 227.113 12.5157 226.868 12.6646L221.953 15.6429L227.262 18.2919C227.989 18.6546 228.852 19.431 229.66 20.4193L230.434 21.3644L232.812 21.8404C233.846 22.0474 234.718 22.1083 235.599 21.9815C235.999 21.924 236.335 21.8364 236.556 21.7772C236.61 21.7629 236.657 21.7502 236.7 21.7386C236.855 21.6966 236.954 21.6699 237.084 21.641C238.812 21.2571 240.288 20.2004 241.061 19.6447L243.48 17.9061ZM236.309 14.3367C236.465 14.4318 236.618 14.5314 236.767 14.6351C237.397 15.0727 237.963 15.5854 238.451 16.1592C238.683 16.4312 238.897 16.7169 239.092 17.0149C238.555 17.401 237.944 17.8205 237.302 18.1275C236.962 18.29 236.614 18.421 236.263 18.4989C236.26 18.4996 236.257 18.5003 236.254 18.501C236.051 18.5463 235.875 18.5938 235.712 18.6381C235.065 18.8132 234.602 18.9387 233.341 18.6864L232.152 18.4484C231.923 18.1688 231.677 17.8859 231.416 17.608C230.609 16.7485 229.658 15.938 228.635 15.4276C228.841 15.3029 229.074 15.1709 229.318 15.0323C230.109 14.5835 231.022 14.0652 231.545 13.4993C231.552 13.4922 231.558 13.4852 231.565 13.4781C232.392 13.3203 233.247 13.3146 234.084 13.4614C234.874 13.6209 235.629 13.9178 236.309 14.3367Z" fill="black"/>
<path fill-rule="evenodd" clip-rule="evenodd" d="M225.236 0.739668L222.806 1.8503C221.457 2.46661 220.264 3.36157 219.314 4.48217C218.365 5.60329 217.681 6.92465 217.325 8.35878C216.969 9.7936 216.95 11.2993 217.275 12.7673C217.588 14.1761 218.455 16.1404 219.428 17.3895L221.113 19.5518L223.504 18.3807C224.806 17.7424 225.961 16.853 226.893 15.7589C227.825 14.6644 228.515 13.3866 228.912 11.999L228.941 11.8973L228.963 11.7936C229.166 10.8366 229.121 9.81766 229.051 9.08183C228.975 8.2866 228.836 7.5154 228.704 6.92637C228.375 5.45286 227.712 4.10818 226.864 2.95412L225.236 0.739668ZM224.469 13.5195C224.438 13.5572 224.407 13.5947 224.375 13.6318C224.324 13.6918 224.272 13.751 224.219 13.8094C223.592 14.4981 222.83 15.0676 221.973 15.4877C221.528 14.917 221.065 14.01 220.752 13.1806C220.67 12.961 220.597 12.7468 220.539 12.5458C220.504 12.4233 220.473 12.3057 220.449 12.1947C220.231 11.2134 220.243 10.2046 220.483 9.23885C220.711 8.32158 221.139 7.46412 221.741 6.72035C221.773 6.681 221.805 6.64196 221.838 6.60326C221.938 6.48502 222.042 6.37026 222.15 6.25914C222.747 5.64636 223.462 5.14425 224.261 4.77923C224.797 5.50884 225.209 6.31723 225.448 7.16896C225.479 7.28003 225.507 7.39183 225.532 7.5043C225.551 7.58831 225.57 7.67674 225.589 7.76882C225.788 8.74519 225.97 10.1318 225.782 11.0157C225.521 11.9267 225.075 12.7769 224.469 13.5195Z" fill="black"/>
<path fill-rule="evenodd" clip-rule="evenodd" d="M224.986 27.0627L225.149 27.0664C226.64 27.1006 228.113 26.8474 229.479 26.3231C230.846 25.7988 232.082 25.0122 233.111 24.0069L235.17 21.9945L233.211 19.7179C233.026 19.5028 232.831 19.2965 232.626 19.0997C232.451 18.92 232.274 18.7215 232.036 18.4558C231.996 18.4115 231.955 18.3653 231.912 18.3171C231.62 17.9917 231.247 17.5796 230.831 17.1816C230.03 16.4144 228.764 15.3957 226.996 15.049C226.539 14.9518 226.075 14.898 225.613 14.888C224.912 14.8684 224.214 14.923 223.531 15.0501L223.313 15.0909L223.103 15.1607C219.879 16.2344 217.07 19.4284 218.191 23.2745L218.518 24.3966L219.498 25.0872C220.939 26.1042 222.459 26.8378 224.54 27.0091L224.986 27.0627ZM225.676 18.0782C225.941 18.0833 226.204 18.1146 226.463 18.1716C227.751 18.4124 228.702 19.4753 229.605 20.4855C229.854 20.7641 230.1 21.0388 230.348 21.291C230.487 21.4219 230.618 21.5595 230.742 21.7032C230.403 22.0341 230.032 22.3321 229.634 22.594C229.251 22.8452 228.844 23.063 228.417 23.2443C228.333 23.2798 228.249 23.3139 228.164 23.3465C228.15 23.3518 228.136 23.3571 228.122 23.3624C228.081 23.378 228.039 23.3933 227.997 23.4083C227.071 23.74 226.08 23.899 225.079 23.8761L224.727 23.8337C223.38 23.7333 222.431 23.3016 221.338 22.5306C220.841 20.8272 222.052 18.9289 224.284 18.1856C224.741 18.1004 225.208 18.0644 225.676 18.0782Z" fill="black"/>
<path fill-rule="evenodd" clip-rule="evenodd" d="M212.465 6.63622L210.802 8.81453C209.906 9.98681 209.301 11.3357 209.029 12.7652C208.756 14.1946 208.822 15.6696 209.222 17.0859C209.621 18.5021 210.344 19.8256 211.338 20.963C212.333 22.1004 213.577 23.0246 214.981 23.6699L217.577 24.8631L219.165 22.6504C220.006 21.4789 220.576 20.1515 220.84 18.7515C221.105 17.3516 221.058 15.9092 220.704 14.5144L220.681 14.4229L220.652 14.3327C220.215 12.9716 219.491 11.7015 218.526 10.5989C217.56 9.49624 216.372 8.58337 215.032 7.91559L212.465 6.63622ZM215.365 11.9393C215.579 12.135 215.782 12.3421 215.973 12.5597C216.019 12.6127 216.065 12.6662 216.109 12.7203C216.719 13.4562 217.18 14.291 217.465 15.1809C217.697 16.0924 217.74 17.0323 217.594 17.9492C217.584 18.0133 217.573 18.0774 217.561 18.1413C217.51 18.4099 217.443 18.6746 217.361 18.9342C217.143 19.6193 216.817 20.2691 216.392 20.8613C215.733 20.5583 215.125 20.1654 214.588 19.6972C214.34 19.4815 214.108 19.2499 213.893 19.0037C213.85 18.9542 213.807 18.9042 213.765 18.8537C213.148 18.1074 212.696 17.2527 212.44 16.3425C212.184 15.4364 212.128 14.4959 212.273 13.5791C212.283 13.5127 212.295 13.4465 212.307 13.3803C212.371 13.0463 212.461 12.7188 212.577 12.4004C212.8 11.7855 213.117 11.2046 213.521 10.6764C214.196 11.0131 214.817 11.4389 215.365 11.9393Z" fill="black"/>
<path fill-rule="evenodd" clip-rule="evenodd" d="M219.596 22.2255L216.668 29.4804L213.633 28.3834L216.561 21.1284L219.596 22.2255Z" fill="black"/>
<path d="M252.767 39.12C252.767 38.4942 252.482 37.6205 251.391 36.5252C250.287 35.4167 248.528 34.27 246.096 33.2375C241.245 31.1776 234.319 29.8255 226.5 29.8255C218.681 29.8255 211.755 31.1776 206.904 33.2375C204.472 34.27 202.713 35.4167 201.609 36.5252C200.518 37.6205 200.233 38.4942 200.233 39.12L197 39.9282C197 33.0095 210.208 26.5926 226.5 26.5926C242.792 26.5926 256 33.0095 256 39.9282L252.767 39.12Z" fill="black"/>
<path fill-rule="evenodd" clip-rule="evenodd" d="M232.862 50.6775C233.398 51.3917 233.253 52.4049 232.539 52.9405C230.766 54.2703 228.992 54.7369 226.904 54.7369C226.011 54.7369 225.288 54.0132 225.288 53.1204C225.288 52.2277 226.011 51.504 226.904 51.504C228.411 51.504 229.473 51.1984 230.599 50.3542C231.313 49.8186 232.326 49.9633 232.862 50.6775Z" fill="black"/>
<path d="M2.37118 21.06C2.37118 20.304 2.87518 19.8 3.63118 19.8H12.3792C17.9232 19.8 20.6232 23.148 20.6232 27.684C20.6232 32.148 17.9232 35.352 12.3792 35.352H6.69118V43.74C6.69118 44.496 6.18718 45 5.43118 45H3.63118C2.87518 45 2.37118 44.496 2.37118 43.74V21.06ZM11.6232 23.472H6.69118V31.86H11.6232C14.5392 31.86 16.2312 30.384 16.2312 27.72C16.2312 25.056 14.7552 23.472 11.6232 23.472ZM21.1457 35.82C21.1457 30.204 25.3217 26.1 30.8657 26.1C36.4097 26.1 40.5857 30.168 40.5857 35.82C40.5857 41.508 36.4097 45.54 30.8657 45.54C25.3217 45.54 21.1457 41.472 21.1457 35.82ZM25.2137 35.82C25.2137 39.708 27.6257 42.264 30.8657 42.264C34.0697 42.264 36.5537 39.708 36.5537 35.82C36.5537 31.968 34.1417 29.376 30.8657 29.376C27.6257 29.376 25.2137 31.968 25.2137 35.82ZM40.6403 28.296C40.5683 28.08 40.5323 27.9 40.5323 27.72C40.5323 27.072 41.0003 26.64 41.8283 26.64H43.7363C44.3123 26.64 44.7803 27 44.9603 27.576L48.4883 40.32H48.6323L52.1963 27.54C52.3403 27 52.8443 26.64 53.3843 26.64H55.7243C56.2643 26.64 56.7683 27 56.9123 27.54L60.4763 40.356H60.6203L64.1843 27.576C64.3283 27 64.7963 26.64 65.4083 26.64H67.2443C68.0723 26.64 68.5403 27.072 68.5403 27.72C68.5403 27.9 68.5043 28.08 68.4323 28.296L63.0323 44.136C62.8523 44.676 62.3843 45 61.8443 45H59.6483C59.1083 45 58.6043 44.64 58.4603 44.1L54.6083 30.924H54.5003L50.6483 44.1C50.5043 44.64 50.0003 45 49.4603 45H47.2643C46.7243 45 46.2563 44.676 46.0763 44.136L40.6403 28.296ZM86.4872 36.9H72.5912C72.9872 40.32 75.3992 42.264 78.2072 42.264C80.3312 42.264 81.9872 41.328 82.9232 39.816C83.1752 39.384 83.6432 39.06 84.1832 39.06H85.6232C86.3792 39.06 86.8832 39.42 86.8832 39.996C86.8832 40.176 86.8112 40.392 86.7032 40.608C85.1192 43.812 81.8432 45.54 78.1712 45.54C72.7712 45.54 68.4872 41.616 68.4872 35.82C68.4872 30.096 72.7712 26.1 78.0992 26.1C82.4552 26.1 87.4952 28.764 87.4952 35.208C87.4952 36.036 87.4592 36.9 86.4872 36.9ZM78.0992 29.376C75.6152 29.376 73.4192 31.104 72.6992 33.984H83.5712C83.0672 31.032 80.7272 29.376 78.0992 29.376ZM91.6304 45H90.1184C89.3624 45 88.8584 44.496 88.8584 43.74V27.9C88.8584 27.144 89.3624 26.64 90.1184 26.64H91.4864C92.1704 26.64 92.7464 27.144 92.7464 27.864V30.456H92.8544C94.2944 27.792 97.2104 26.244 99.9464 26.244C100.666 26.244 100.99 26.496 100.99 27.108V29.268C100.99 29.736 100.738 29.952 100.306 29.952H100.054C96.2744 29.952 92.8904 32.508 92.8904 37.908V43.74C92.8904 44.496 92.3864 45 91.6304 45ZM119.204 36.9H105.308C105.704 40.32 108.116 42.264 110.924 42.264C113.048 42.264 114.704 41.328 115.64 39.816C115.892 39.384 116.36 39.06 116.9 39.06H118.34C119.096 39.06 119.6 39.42 119.6 39.996C119.6 40.176 119.528 40.392 119.42 40.608C117.836 43.812 114.56 45.54 110.888 45.54C105.488 45.54 101.204 41.616 101.204 35.82C101.204 30.096 105.488 26.1 110.816 26.1C115.172 26.1 120.212 28.764 120.212 35.208C120.212 36.036 120.176 36.9 119.204 36.9ZM110.816 29.376C108.332 29.376 106.136 31.104 105.416 33.984H116.288C115.784 31.032 113.444 29.376 110.816 29.376ZM138.495 45H137.163C136.443 45 135.867 44.496 135.867 43.776V42.624C134.319 44.604 132.159 45.54 129.495 45.54C124.563 45.54 120.603 41.508 120.603 35.82C120.603 30.096 124.599 26.1 129.495 26.1C132.087 26.1 134.283 27.144 135.723 29.052V21.06C135.723 20.304 136.227 19.8 136.983 19.8H138.495C139.251 19.8 139.755 20.304 139.755 21.06V43.74C139.755 44.496 139.251 45 138.495 45ZM124.671 35.82C124.671 39.672 127.191 42.264 130.323 42.264C133.527 42.264 135.975 39.6 135.975 35.82C135.975 32.04 133.527 29.376 130.323 29.376C127.191 29.376 124.671 32.004 124.671 35.82ZM151.96 45H150.664C149.908 45 149.404 44.496 149.404 43.74V21.06C149.404 20.304 149.908 19.8 150.664 19.8H152.176C152.932 19.8 153.436 20.304 153.436 21.06V29.124C154.84 27.252 157.072 26.1 159.664 26.1C164.56 26.1 168.556 30.06 168.556 35.82C168.556 41.472 164.596 45.54 159.664 45.54C157 45.54 154.768 44.496 153.22 42.48V43.74C153.22 44.496 152.716 45 151.96 45ZM153.184 35.82C153.184 39.6 155.632 42.264 158.836 42.264C161.968 42.264 164.488 39.636 164.488 35.82C164.488 31.968 161.968 29.376 158.836 29.376C155.632 29.376 153.184 32.04 153.184 35.82ZM168.738 28.368C168.63 28.116 168.594 27.9 168.594 27.684C168.594 27.036 169.062 26.64 169.89 26.64H171.582C172.122 26.64 172.59 26.964 172.77 27.504L177.45 40.968H177.594L182.13 27.504C182.31 27 182.778 26.64 183.318 26.64H185.01C185.838 26.64 186.306 27.036 186.306 27.684C186.306 27.9 186.234 28.116 186.162 28.368L179.61 45.072C177.63 50.076 176.55 52.38 172.626 52.38C172.518 52.38 172.374 52.38 172.23 52.38C171.222 52.38 169.494 52.308 169.494 51.048V50.076C169.494 49.392 169.854 49.104 170.43 49.104C170.97 49.104 171.51 49.212 171.87 49.212C173.85 49.212 174.714 47.124 175.29 44.964L168.738 28.368Z" fill="black"/>
</svg>
