<svg width="256" height="256" viewBox="0 0 256 256" fill="none" xmlns="http://www.w3.org/2000/svg">
<path fill-rule="evenodd" clip-rule="evenodd" d="M129.43 21C39.095 21 38.1638 123.659 38.1638 123.659C38.1638 123.659 36.3064 211.728 45.1005 222.742C53.8946 233.756 62.7973 229.271 68.2276 221C68.7046 220.273 69.1854 219.527 69.6734 218.768L69.6759 218.765L69.6768 218.763C74.7432 210.893 80.5838 201.819 90.9839 201.819C101.648 201.819 104.779 208.627 108.746 217.252L108.747 217.252C109.022 217.851 109.302 218.458 109.588 219.073C114.05 228.652 118.781 235 129.43 235C136.949 235 138.823 230.454 141.498 223.964C142.13 222.431 142.807 220.789 143.613 219.073C149.007 207.597 155.539 203.751 163.719 203.751C171.9 203.751 175.291 206.189 183.54 221C191.788 235.811 202.604 238.339 208.006 224.669C213.408 211 214.494 123.659 214.494 123.659C214.494 123.659 219.766 21 129.43 21ZM87.5 96.5C95.5 99 109.766 101.099 118.375 85.8272C126.985 70.5552 125.954 53.6586 116.072 48.0874C106.19 42.5163 91.1992 50.3804 82.5894 65.6524C73.9796 80.9243 79.5 94 87.5 96.5ZM176.534 70.1026C183.199 85.6232 182.018 94.413 172.5 98.5C162.982 102.587 148.733 100.424 142.068 84.9031C135.403 69.3825 137.716 53.4873 147.233 49.4003C156.751 45.3132 169.87 54.582 176.534 70.1026ZM128.1 134.228C134.295 134.406 138.525 131.342 138.807 121.487C139.089 111.631 134.295 103.498 128.1 103.321C121.906 103.144 116.655 110.99 116.373 120.845C116.091 130.701 121.906 134.051 128.1 134.228Z" fill="black"/>
</svg>
