<?xml version="1.0" encoding="utf-8"?>
<!-- Generator: Adobe Illustrator 16.0.0, SVG Export Plug-In . SVG Version: 6.00 Build 0)  -->
<!DOCTYPE svg PUBLIC "-//W3C//DTD SVG 1.0//EN" "http://www.w3.org/TR/2001/REC-SVG-20010904/DTD/svg10.dtd">
<svg version="1.0" id="Layer_1" xmlns="http://www.w3.org/2000/svg" xmlns:xlink="http://www.w3.org/1999/xlink" x="0px" y="0px"
	 width="200px" height="200px" viewBox="0 0 200 200" enable-background="new 0 0 200 200" xml:space="preserve">
<symbol  id="New_Symbol" viewBox="-266.166 -266.166 532.331 532.331">
	<path fill-rule="evenodd" clip-rule="evenodd" fill="#A0A0A0" d="M239.834-203.005c0-21.048-17.062-38.11-38.11-38.11h-407.779
		c-21.049,0-38.111,17.062-38.111,38.11v407.779c0,21.048,17.062,38.11,38.111,38.11h407.779c21.048,0,38.11-17.062,38.11-38.11
		V-203.005z"/>
	<path fill-rule="evenodd" clip-rule="evenodd" fill="#383838" d="M266.166-204.672c0-33.963-27.532-61.494-61.494-61.494h-409.342
		c-33.963,0-61.495,27.531-61.495,61.494v409.343c0,33.962,27.532,61.494,61.495,61.494h409.342
		c33.962,0,61.494-27.532,61.494-61.494V-204.672z M231.834,196.314c0,20.352-16.498,36.851-36.851,36.851h-394.298
		c-20.353,0-36.852-16.499-36.852-36.851v-394.299c0-20.353,16.499-36.851,36.852-36.851h394.298
		c20.353,0,36.851,16.498,36.851,36.851V196.314z"/>
	<g>
		<path fill="none" d="M-2.666,138.385c-27.338,0-49.5-20.595-49.5-46v-40.5h99v40.5C46.834,117.79,24.672,138.385-2.666,138.385z"
			/>
		<path fill="#1F1E1F" d="M77.984,51.885h-3.709v40.5c0,39.488-34.447,71.5-76.94,71.5s-76.94-32.012-76.94-71.5v-40.5h-1.709
			c-20.352,0-36.851-16.499-36.851-36.851v-131.299c0-20.353,16.499-36.851,36.851-36.851H77.984
			c20.353,0,36.851,16.498,36.851,36.851V15.034C114.834,35.386,98.336,51.885,77.984,51.885z M9.993-56.712l7.842-47.903l-43,0.5
			l7.764,48.525c-8.536,5.047-14.264,14.34-14.264,24.975c0,16.017,12.983,29,29,29s29-12.983,29-29
			C26.334-42.093,19.666-52.012,9.993-56.712z M46.834,51.885h-99v40.5c0,25.405,22.162,46,49.5,46c27.338,0,49.5-20.595,49.5-46
			V51.885z"/>
	</g>
</symbol>
<use xlink:href="#New_Symbol"  width="532.331" height="532.331" x="-266.166" y="-266.166" transform="matrix(0.3757 0 0 -0.3757 100 100)" overflow="visible"/>
</svg>
