<?xml version="1.0" encoding="utf-8"?>
<!-- Generator: Adobe Illustrator 18.1.0, SVG Export Plug-In . SVG Version: 6.00 Build 0)  -->
<svg version="1.1" id="Anon1" xmlns="http://www.w3.org/2000/svg" xmlns:xlink="http://www.w3.org/1999/xlink" x="0px" y="0px"
	 viewBox="0 0 252 252" enable-background="new 0 0 252 252" xml:space="preserve">
<g>
	<circle fill="#D0D0D0" cx="126" cy="126" r="125"/>
	<g>
		<defs>
			<circle id="SVGID_1_" cx="126" cy="126" r="125"/>
		</defs>
		<clipPath id="SVGID_2_">
			<use xlink:href="#SVGID_1_"  overflow="visible"/>
		</clipPath>
		<path id="vCard_1_" clip-path="url(#SVGID_2_)" fill="#F2F2F2" d="M233.7,219.7c0-9.9-7-10.2-15.3-13.5l-38.8-15.5
			c-0.7-0.3-1.3-0.5-2-0.8v0c-6.9-3.1-13-7.5-15.2-10.5l-0.1-0.1l0,0c-0.1-0.2-0.3-0.4-0.4-0.6l-0.1-0.2l0,0l-0.1-0.1v0
			c-1-1.6-2.1-2.3-3-1.9l-0.1,0l0,0l0,0l-0.1,0l0,0l-0.1,0c-1.1,0.5-0.8-0.1-1.3-1.2c-1.1-2.8-2.8-8.2-3-9c-0.4-1.5-1.5,2.3-1.2-1.8
			l0.4-7.4c0.7-0.8,1.3-1.4,1.7-1.8c2.5-2.9,2.7-10.5,4-12.4c1.3-1.9,3.8-2.3,6.3-10.9c2.5-8.7,5.6-21.1,2.4-21.3
			c-0.8-0.1-1.7,0.5-2.6,1.3c0.6-3.2,1.8-10.4,2.1-15.7c0.4-7-0.8-25-4.8-31.6c-2.5-4.1-7.5-8.2-12.6-11.4c-3-1.9-6-3.5-8.5-4.6
			c-7.3-3.2-30.4-1.8-38.2,0c-8.9,2-15.1,7.6-19.1,14.2c-4,6.6-5.7,26.4-5.4,33.4c0.2,3.1,2.1,8.5,2.5,11.7c0.3,1.7,0.5,1.7,0.7,2.9
			c-0.3-0.1-0.7-0.2-1-0.2c-3.3,0.2-0.2,12.6,2.4,21.3c2.5,8.7,5.1,9.1,6.3,10.9c1.3,1.9,1.4,9.5,4,12.4c0.4,0.5,1,1.1,1.8,1.9
			l0.5,6.1l0.9,3.4c-0.4-1-1.2-1.6-1.5-0.3c-1.1,3.3-2.2,6.6-3.3,9.9c-0.1-0.2-0.3-0.3-0.5-0.3c-1.1-0.9-2.5-0.1-3.8,2
			c-1.9,3.2-8.3,7.8-15.6,11.1l-0.1,0.4l-0.1,0.4l0,0.2c-0.6,0.3-1.2,0.5-1.8,0.7l-38.8,15.5c-8.3,3.3-15.3,3.6-15.3,13.5l-6.4,33.8
			h232.8L233.7,219.7z"/>
	</g>
</g>
</svg>
