<?xml version="1.0" encoding="UTF-8"?>
<svg width="254px" height="409px" viewBox="0 0 254 409" version="1.1" xmlns="http://www.w3.org/2000/svg" xmlns:xlink="http://www.w3.org/1999/xlink">
    <!-- Generator: Sketch 40.2 (33826) - http://www.bohemiancoding.com/sketch -->
    <title>rocket_service</title>
    <desc>Created with Sketch.</desc>
    <defs></defs>
    <g id="Page-1" stroke="none" stroke-width="1" fill="none" fill-rule="evenodd">
        <g id="Artboard" transform="translate(-537.000000, -355.000000)">
            <g id="rocket_service" transform="translate(537.000000, 325.000000)">
                <g id="Group-3" transform="translate(60.000000, 0.000000)">
                    <path d="M56.0892102,109.906942 C37.2494722,144.94276 26,189.239575 26,237.406942 C26,315.12306 55.2852233,382.763151 98.4861075,417.686033 C146.046788,384.948023 179,313.846509 179,231.406942 C179,182.361438 167.336612,137.328901 147.872845,102 C150.2476,106.97972 151.597203,110.215378 151.597203,110.215378 C92.0379189,148.317409 60.3185578,110.215378 58.1908216,109.921935 C58.1908216,109.921935 58.1934146,109.916906 58.1985672,109.906942 L56.0892102,109.906942 Z M104,222 C123.882251,222 140,205.882251 140,186 C140,166.117749 123.882251,150 104,150 C84.117749,150 68,166.117749 68,186 C68,205.882251 84.117749,222 104,222 Z" id="Combined-Shape" fill="#435063"></path>
                    <path d="M87.4812384,81.3780422 C89.6089747,81.6714858 121.328336,119.773516 180.88762,81.6714858 C180.88762,81.6714858 159.207202,29.692904 136.736438,21.7739839 C118.21667,21.7739839 87.4812384,81.3780422 87.4812384,81.3780422 Z" id="Path-2-Copy" fill="#F25C00" transform="translate(134.184429, 60.184429) rotate(45.000000) translate(-134.184429, -60.184429) "></path>
                    <path d="M104,222 C123.882251,222 140,205.882251 140,186 C140,166.117749 123.882251,150 104,150 C84.117749,150 68,166.117749 68,186 C68,205.882251 84.117749,222 104,222 Z M104,213 C118.911688,213 131,200.911688 131,186 C131,171.088312 118.911688,159 104,159 C89.0883118,159 77,171.088312 77,186 C77,200.911688 89.0883118,213 104,213 Z" id="Combined-Shape-Copy-2" fill="#F25B00"></path>
                    <path d="M140,379.284036 L165.679911,429.062197 C165.679911,429.062197 172.481927,439.855077 177.714725,424.736583 C182.947524,409.618089 191.606218,358.108935 191.606218,358.108935 C191.606218,358.108935 193.994266,345.823992 183.965462,328.507847 C173.936657,311.191703 162.067352,294 162.067352,294 L140,379.284036 Z" id="Path-3" fill="#F25B00" transform="translate(165.927374, 363.397518) rotate(8.000000) translate(-165.927374, -363.397518) "></path>
                    <path d="M8,376.284036 L33.6799113,426.062197 C33.6799113,426.062197 40.4819269,436.855077 45.7147253,421.736583 C50.9475237,406.618089 59.6062183,355.108935 59.6062183,355.108935 C59.6062183,355.108935 61.9942659,342.823992 51.9654616,325.507847 C41.9366573,308.191703 30.0673516,291 30.0673516,291 L8,376.284036 Z" id="Path-3-Copy" fill="#F36B0F" transform="translate(33.927374, 360.397518) scale(-1, 1) rotate(6.000000) translate(-33.927374, -360.397518) "></path>
                    <path d="M100.180897,432.477123 C73.5922969,353.706212 102.771891,285.395523 102.771891,285.395523 L102.768006,285.670725 C102.916985,285.353747 103.056495,285.172894 103.180898,285.172894 C103.181711,285.172894 103.182525,285.172902 103.183339,285.172917 L103.180898,285 C103.180898,285 103.209407,285.066739 103.263829,285.198451 C103.561517,285.375743 103.934469,286.458065 104.313235,287.901084 C109.459843,301.777187 129.380734,363.589539 105.342647,433.340081 L105.333424,434.840053 C105.333424,434.840053 103.750194,435.828726 102.643184,435.828726 C101.750194,435.828726 100.180898,434.224243 100.180898,434.224243 L100.180898,432.477125 Z" id="Combined-Shape" fill="#F36B0F"></path>
                </g>
                <g id="Group" transform="translate(103.500000, 241.500000) scale(-1, 1) translate(-103.500000, -241.500000) translate(0.000000, 44.000000)">
                    <path d="M77.903058,327.285859 L67.9952071,290.309257 L144.188641,276.874298 L154.096492,313.850901 L77.903058,327.285859 Z M81.5403657,340.860477 L93.6180629,385.935056 C94.6195121,389.672515 92.3965305,393.515501 88.6698663,394.514058 C84.9356035,395.514651 81.0969582,393.297503 80.0951013,389.558523 L12.0528902,135.621534 C11.6859241,134.960319 11.4208905,134.228296 11.2824007,133.442881 C11.2177187,133.076051 11.1829128,132.710854 11.1762263,132.349779 L0.381937119,92.0649439 C-0.619512072,88.3274847 1.60346949,84.4844986 5.33013374,83.485942 C9.06439646,82.4853493 12.9030418,84.7024965 13.9048987,88.4414773 L23.482018,124.183773 L99.6754524,110.748815 L90.3819371,76.0649439 C89.3804879,72.3274847 91.6034695,68.4844986 95.3301337,67.485942 C99.0643965,66.4853493 102.903042,68.7024965 103.904899,72.4414773 L155.365858,264.496392 C156.037542,265.364575 156.514137,266.403227 156.717599,267.557119 C156.846368,268.287401 156.85673,269.011214 156.762546,269.708901 L183.618063,369.935056 C184.619512,373.672515 182.396531,377.515501 178.669866,378.514058 C174.935604,379.514651 171.096958,377.297503 170.095101,373.558523 L157.7338,327.425518 L81.5403657,340.860477 Z M64.3578995,276.73464 L54.4803336,239.871062 L130.673768,226.436104 L140.551334,263.299681 L64.3578995,276.73464 Z M50.8430259,226.296445 L40.8900599,189.15147 L117.083494,175.716512 L127.03646,212.861487 L50.8430259,226.296445 Z M37.2527522,175.576853 L27.1193257,137.75839 L103.31276,124.323432 L113.446187,162.141895 L37.2527522,175.576853 Z" id="Combined-Shape" fill="#2A2D36"></path>
                    <path d="M155.741563,13.6305712 L178.090174,35.9791825 L178.586521,35.4086113 L185.800381,37.8436094 L186.191167,37.4245423 L196.498645,47.0364206 C197.851401,46.9261718 199.249793,47.1214388 200.594161,47.664599 C205.202787,49.5266046 207.431921,54.765753 205.566648,59.3824666 L188.510316,101.598369 C186.647919,106.207963 181.403133,108.435733 176.793494,106.573318 C176.67492,106.525411 176.557921,106.475268 176.442526,106.422958 L140.015141,96.2402383 L130.660507,155.303074 C130.50641,156.276002 130.216765,157.193783 129.813933,158.040249 L141.686069,225.370475 C142.644186,230.804232 139.003435,235.98808 133.573445,236.945534 L132.793821,237.083002 C127.355225,238.041974 122.169718,234.414753 121.211546,228.980686 L109.412191,162.063223 L93.10191,159.479928 L79,176.894337 L79,218.429011 C79,223.94939 74.5207309,228.424542 68.9920273,228.424542 L68.0079727,228.424542 C62.480722,228.424542 58,223.948264 58,218.429011 L58,172.424542 L58.3471131,172.424542 L77.5659296,148.691281 C77.5541805,148.106033 77.5938169,147.511594 77.6886014,146.913149 L87.5438374,84.6896376 L56,56.2874388 L56.2347973,56.0266699 L52,49.7547305 L52,18.9311642 C52,13.6808019 56.2521413,9.42454229 61.5,9.42454229 C66.7467051,9.42454229 71,13.6770174 71,18.9338196 L71,42.8808449 L96.7516476,66.0677325 L143.618316,73.4906836 L143.574496,73.7673561 L176.596055,83.036792 L187.199586,56.7921307 L177,47.2808626 L177.335145,46.9214634 L174.568935,40.0269932 L174.800604,39.7606804 L152.324382,17.2844583 C151.981336,17.5664176 151.573634,17.8940107 151.082955,18.2820312 C143.5969,13.002127 138.810828,1.16347821 138.810828,1.16347821 L139.974307,-2.66453526e-14 C139.974307,-2.66453526e-14 153.624887,6.99997484 156.30278,13.002127 C156.092103,13.2332738 155.906551,13.4415278 155.741563,13.6305712 Z M181,46.6186034 L183.045995,44.4245423 L190.223287,51.1174754 L188.177292,53.3115365 L181,46.6186034 Z M184,43.6186034 L186.045995,41.4245423 L193.223287,48.1174754 L191.177292,50.3115365 L184,43.6186034 Z" id="Combined-Shape" fill="#FFFFFF"></path>
                    <ellipse id="Oval-4" fill="#FFFFFF" cx="124" cy="37" rx="25" ry="25"></ellipse>
                </g>
            </g>
        </g>
    </g>
</svg>