<?xml version="1.0" encoding="UTF-8"?>
<svg width="1024px" height="601px" viewBox="0 0 1024 601" version="1.1" xmlns="http://www.w3.org/2000/svg" xmlns:xlink="http://www.w3.org/1999/xlink">
    <!-- Generator: Sketch 40.2 (33826) - http://www.bohemiancoding.com/sketch -->
    <title>Group 4</title>
    <desc>Created with Sketch.</desc>
    <defs>
        <rect id="path-1" x="21" y="0" width="1024" height="603"></rect>
        <mask id="mask-2" maskContentUnits="userSpaceOnUse" maskUnits="objectBoundingBox" x="0" y="0" width="1024" height="603" fill="white">
            <use xlink:href="#path-1"></use>
        </mask>
    </defs>
    <g id="Page-1" stroke="none" stroke-width="1" fill="none" fill-rule="evenodd">
        <g id="Desktop-HD" transform="translate(-208.000000, -212.000000)">
            <g id="Group-5" transform="translate(208.000000, 212.000000)">
                <g id="Group-4" transform="translate(-21.000000, -2.000000)">
                    <use id="Rectangle-17" stroke="#979797" mask="url(#mask-2)" stroke-width="2" fill="#FFFFFF" opacity="0.01" xlink:href="#path-1"></use>
                    <path d="M898.133334,488.458265 C898.133334,482.559342 896.036978,477.522997 891.844273,473.349235 C887.651562,469.175468 882.592359,467.088585 876.666668,467.088585 C870.740972,467.088585 865.681769,469.175468 861.489064,473.349235 C857.296353,477.522997 855.199998,482.559342 855.199998,488.458265 C855.199998,494.357183 857.296353,499.393528 861.489064,503.56729 C865.681769,507.741057 870.740972,509.82794 876.666668,509.82794 C882.592359,509.82794 887.651562,507.741057 891.844273,503.56729 C896.036978,499.393528 898.133334,494.357183 898.133334,488.458265 L898.133334,488.458265 Z M962.533335,531.197616 C962.533335,528.303806 961.47118,525.799548 959.346875,523.684841 C957.22257,521.570129 954.706946,520.512778 951.800002,520.512778 C948.893058,520.512778 946.377429,521.570129 944.253124,523.684841 C942.128819,525.799548 941.066669,528.303806 941.066669,531.197616 C941.066669,534.147077 942.114844,536.665247 944.2112,538.752131 C946.307555,540.839014 948.837154,541.882454 951.800002,541.882454 C954.76285,541.882454 957.292449,540.839014 959.388804,538.752131 C961.485155,536.665247 962.533335,534.147077 962.533335,531.197616 L962.533335,531.197616 Z M962.533335,445.718909 C962.533335,442.825099 961.47118,440.320841 959.346875,438.206129 C957.22257,436.091422 954.706946,435.034071 951.800002,435.034071 C948.893058,435.034071 946.377429,436.091422 944.253124,438.206129 C942.128819,440.320841 941.066669,442.825099 941.066669,445.718909 C941.066669,448.66837 942.114844,451.18654 944.2112,453.273424 C946.307555,455.360308 948.837154,456.403747 951.800002,456.403747 C954.76285,456.403747 957.292449,455.360308 959.388804,453.273424 C961.485155,451.18654 962.533335,448.66837 962.533335,445.718909 L962.533335,445.718909 Z M930.333332,480.86201 L930.333332,496.30494 C930.333332,496.861441 930.137674,497.404031 929.746355,497.932709 C929.355036,498.461387 928.907812,498.753551 928.404689,498.809198 L915.407294,500.812607 C914.792362,502.760364 913.897915,504.875071 912.723957,507.156732 C914.624655,509.82794 917.140279,513.027827 920.270834,516.756391 C920.662154,517.312892 920.857811,517.869393 920.857811,518.425895 C920.857811,519.093699 920.662154,519.622377 920.270834,520.011924 C918.985068,521.681432 916.67908,524.171779 913.352863,527.482963 C910.02665,530.794153 907.832466,532.449745 906.770311,532.449745 C906.15538,532.449745 905.568403,532.254972 905.009376,531.86542 L895.366148,524.352641 C893.297742,525.409997 891.145488,526.272574 888.909375,526.940374 C888.294443,532.9506 887.651562,537.263488 886.980732,539.87905 C886.589408,541.214654 885.750869,541.882454 884.465103,541.882454 L868.868229,541.882454 C868.253298,541.882454 867.694271,541.673769 867.191148,541.256389 C866.68802,540.839014 866.408509,540.352076 866.352605,539.79557 L864.423957,527.023849 C862.523264,526.467348 860.426909,525.60477 858.134896,524.436116 L848.240102,531.86542 C847.848787,532.254972 847.289755,532.449745 846.563021,532.449745 C845.948089,532.449745 845.361113,532.227144 844.802086,531.781946 C836.752085,524.380469 832.727082,519.928449 832.727082,518.425895 C832.727082,517.925045 832.922744,517.396367 833.314064,516.839866 C833.873091,516.060763 835.019099,514.586032 836.752085,512.415674 C838.48507,510.245315 839.798787,508.547983 840.693229,507.323682 C839.407467,504.875071 838.429166,502.593414 837.758336,500.478707 L825.012501,498.475298 C824.453474,498.419647 823.978296,498.15531 823.586982,497.682284 C823.195657,497.209257 823,496.666668 823,496.054515 L823,480.611585 C823,480.055084 823.195657,479.512494 823.586982,478.983816 C823.978296,478.455139 824.42552,478.162974 824.928648,478.107327 L837.926043,476.103918 C838.540974,474.156161 839.435417,472.041455 840.609375,469.759798 C838.708682,467.088585 836.193058,463.888698 833.062502,460.160134 C832.671183,459.547981 832.475521,458.99148 832.475521,458.49063 C832.475521,457.822826 832.671183,457.266325 833.062502,456.821122 C834.29236,455.151618 836.584377,452.675183 839.93854,449.391822 C843.292707,446.108461 845.500871,444.46678 846.563021,444.46678 C847.177952,444.46678 847.764929,444.661553 848.323961,445.051105 L857.967189,452.563884 C859.867882,451.56218 862.020141,450.671774 864.423957,449.892671 C865.038888,443.88245 865.681769,439.597385 866.352605,437.03748 C866.743924,435.701871 867.582467,435.034071 868.868229,435.034071 L884.465103,435.034071 C885.080034,435.034071 885.639061,435.242756 886.142189,435.660136 C886.645312,436.077511 886.924828,436.564449 886.980732,437.120955 L888.909375,449.892671 C890.810068,450.449178 892.906423,451.311755 895.198435,452.48041 L905.09323,445.051105 C905.540454,444.661553 906.099481,444.46678 906.770311,444.46678 C907.385242,444.46678 907.972224,444.689381 908.531251,445.13458 C916.581252,452.536056 920.60625,456.988076 920.60625,458.49063 C920.60625,458.99148 920.410592,459.520158 920.019273,460.076659 C919.348438,460.967065 918.174479,462.469619 916.497398,464.584326 C914.820312,466.699033 913.5625,468.368542 912.723957,469.592843 C914.009723,472.264056 914.96007,474.545713 915.575001,476.437818 L928.320835,478.357752 C928.879862,478.46905 929.355036,478.761215 929.746355,479.234241 C930.137674,479.707268 930.333332,480.249857 930.333332,480.86201 L930.333332,480.86201 Z M984,525.354345 L984,537.040887 C984,537.931288 979.835244,538.793871 971.505732,539.62862 C970.834897,541.131179 969.996354,542.578082 968.990103,543.969337 C971.841148,550.257811 973.266667,554.097674 973.266667,555.488929 C973.266667,555.711531 973.154864,555.906304 972.931252,556.073254 C966.111114,560.02442 962.645138,562 962.533335,562 C962.086111,562 960.800349,560.692224 958.676044,558.076663 C956.551735,555.461106 955.098265,553.568996 954.315626,552.400342 C953.197572,552.511645 952.359029,552.567291 951.800002,552.567291 C951.240975,552.567291 950.402432,552.511645 949.284378,552.400342 C948.501739,553.568996 947.048264,555.461106 944.92396,558.076663 C942.799655,560.692224 941.513888,562 941.066669,562 C940.954861,562 937.48889,560.02442 930.668752,556.073254 C930.44514,555.906304 930.333332,555.711531 930.333332,555.488929 C930.333332,554.097674 931.758856,550.257811 934.609896,543.969337 C933.603645,542.578082 932.765102,541.131179 932.094272,539.62862 C923.76476,538.793871 919.599999,537.931288 919.599999,537.040887 L919.599999,525.354345 C919.599999,524.463944 923.76476,523.601366 932.094272,522.766612 C932.821006,521.152754 933.659549,519.705852 934.609896,518.425895 C931.758856,512.137421 930.333332,508.297558 930.333332,506.906302 C930.333332,506.683701 930.44514,506.488928 930.668752,506.321978 C930.892364,506.210675 931.87066,505.654173 933.603645,504.652469 C935.336631,503.650765 936.985762,502.704712 938.55104,501.814311 C940.116318,500.92391 940.954861,500.478707 941.066669,500.478707 C941.513888,500.478707 942.799655,501.772571 944.92396,504.360309 C947.048264,506.948042 948.501739,508.826236 949.284378,509.99489 C950.402432,509.883587 951.240975,509.82794 951.800002,509.82794 C952.359029,509.82794 953.197572,509.883587 954.315626,509.99489 C957.166666,506.043725 959.738194,502.927314 962.030207,500.645657 L962.533335,500.478707 C962.756946,500.478707 966.222917,502.426464 972.931252,506.321978 C973.154864,506.488928 973.266667,506.683701 973.266667,506.906302 C973.266667,508.297558 971.841148,512.137421 968.990103,518.425895 C969.940455,519.705852 970.778993,521.152754 971.505732,522.766612 C979.835244,523.601366 984,524.463944 984,525.354345 L984,525.354345 Z M984,439.875638 L984,451.56218 C984,452.452581 979.835244,453.315159 971.505732,454.149913 C970.834897,455.652467 969.996354,457.099375 968.990103,458.49063 C971.841148,464.779104 973.266667,468.618967 973.266667,470.010223 C973.266667,470.232824 973.154864,470.427597 972.931252,470.594547 C966.111114,474.545713 962.645138,476.521293 962.533335,476.521293 C962.086111,476.521293 960.800349,475.213517 958.676044,472.597956 C956.551735,469.982394 955.098265,468.090289 954.315626,466.921635 C953.197572,467.032933 952.359029,467.088585 951.800002,467.088585 C951.240975,467.088585 950.402432,467.032933 949.284378,466.921635 C948.501739,468.090289 947.048264,469.982394 944.92396,472.597956 C942.799655,475.213517 941.513888,476.521293 941.066669,476.521293 C940.954861,476.521293 937.48889,474.545713 930.668752,470.594547 C930.44514,470.427597 930.333332,470.232824 930.333332,470.010223 C930.333332,468.618967 931.758856,464.779104 934.609896,458.49063 C933.603645,457.099375 932.765102,455.652467 932.094272,454.149913 C923.76476,453.315159 919.599999,452.452581 919.599999,451.56218 L919.599999,439.875638 C919.599999,438.985232 923.76476,438.122654 932.094272,437.287905 C932.821006,435.674048 933.659549,434.22714 934.609896,432.947188 C931.758856,426.658714 930.333332,422.818851 930.333332,421.427596 C930.333332,421.204994 930.44514,421.010221 930.668752,420.843271 C930.892364,420.731968 931.87066,420.175466 933.603645,419.173762 C935.336631,418.172058 936.985762,417.226005 938.55104,416.335604 C940.116318,415.445198 940.954861,415 941.066669,415 C941.513888,415 942.799655,416.293864 944.92396,418.881597 C947.048264,421.469336 948.501739,423.347529 949.284378,424.516184 C950.402432,424.40488 951.240975,424.349234 951.800002,424.349234 C952.359029,424.349234 953.197572,424.40488 954.315626,424.516184 C957.166666,420.565018 959.738194,417.448607 962.030207,415.16695 L962.533335,415 C962.756946,415 966.222917,416.947757 972.931252,420.843271 C973.154864,421.010221 973.266667,421.204994 973.266667,421.427596 C973.266667,422.818851 971.841148,426.658714 968.990103,432.947188 C969.940455,434.22714 970.778993,435.674048 971.505732,437.287905 C979.835244,438.122654 984,438.985232 984,439.875638 L984,439.875638 Z" id="Shape" fill-opacity="0.132274683" fill="#FFFFFF"></path>
                    <path d="M142.666665,438.500002 C142.666665,433.761285 140.990232,429.715494 137.63737,426.362632 C134.284504,423.009765 130.238716,421.333332 125.5,421.333332 C120.761284,421.333332 116.715492,423.009765 113.36263,426.362632 C110.009764,429.715494 108.333335,433.761285 108.333335,438.500002 C108.333335,443.238715 110.009764,447.284506 113.36263,450.637368 C116.715492,453.990235 120.761284,455.666668 125.5,455.666668 C130.238716,455.666668 134.284504,453.990235 137.63737,450.637368 C140.990232,447.284506 142.666665,443.238715 142.666665,438.500002 L142.666665,438.500002 Z M177,431.190756 L177,446.077476 C177,446.613932 176.82118,447.128037 176.46354,447.619791 C176.1059,448.111545 175.658852,448.402128 175.122396,448.491536 L162.716798,450.36914 C161.867404,452.783205 160.995659,454.817274 160.101563,456.471356 C161.666233,458.706596 164.057942,461.791235 167.27669,465.725263 C167.723742,466.261719 167.947264,466.82053 167.947264,467.401692 C167.947264,467.982858 167.746093,468.496963 167.343747,468.944012 C166.136717,470.59809 163.923828,473.012154 160.705076,476.1862 C157.486327,479.360243 155.385197,480.947268 154.401693,480.947268 C153.865233,480.947268 153.284071,480.746097 152.658203,480.343751 L143.404296,473.101562 C141.437284,474.129776 139.403211,474.979166 137.302081,475.64974 C136.586805,481.729601 135.938586,485.887156 135.35742,488.122396 C135.044486,489.374132 134.239798,490 132.94336,490 L118.05664,490 C117.430772,490 116.883137,489.810004 116.413738,489.430013 C115.944335,489.050022 115.687282,488.569448 115.642576,487.988282 L113.764972,475.64974 C111.574434,474.934464 109.562716,474.107425 107.729818,473.168623 L98.2747399,480.343751 C97.8276919,480.746097 97.2688808,480.947268 96.5983068,480.947268 C95.9724387,480.947268 95.4136277,480.701391 94.9218736,480.209637 C89.2890612,475.113284 85.6009099,471.358076 83.8574238,468.944012 C83.5444857,468.496963 83.3880207,467.982858 83.3880207,467.401692 C83.3880207,466.865236 83.5668407,466.351131 83.9244808,465.859377 C84.5950508,464.920575 85.7350279,463.434137 87.3444,461.400064 C88.9537762,459.365995 90.1608063,457.790149 90.9654943,456.672527 C89.7584642,454.437283 88.8420132,452.224394 88.2161451,450.033855 L75.9446612,448.223308 C75.3634991,448.133896 74.8940961,447.854493 74.53646,447.385094 C74.17882,446.91569 74,446.39041 74,445.809244 L74,430.922528 C74,430.386068 74.17882,429.871963 74.53646,429.380209 C74.8940961,428.888455 75.3187931,428.597872 75.8105471,428.508464 L88.2832021,426.63086 C88.9090702,424.574435 89.7808152,422.518011 90.8984373,420.461587 C89.1102412,417.913413 86.718532,414.828774 83.7233058,411.20768 C83.2762577,410.671224 83.0527357,410.134764 83.0527357,409.598308 C83.0527357,409.15126 83.2539067,408.637151 83.6562487,408.055988 C84.8185768,406.446612 87.0202905,404.043727 90.2613938,400.84733 C93.502497,397.650933 95.6147987,396.052732 96.5983068,396.052732 C97.1794688,396.052732 97.7606348,396.276258 98.3417969,396.723306 L107.595704,403.898438 C109.562716,402.870224 111.596789,402.020834 113.697915,401.35026 C114.413195,395.270399 115.061414,391.112844 115.642576,388.877604 C115.95551,387.625868 116.760198,387 118.05664,387 L132.94336,387 C133.569228,387 134.116863,387.189996 134.586262,387.569987 C135.055665,387.949978 135.312718,388.430556 135.35742,389.011718 L137.235024,401.35026 C139.425562,402.065536 141.437284,402.892579 143.270182,403.831381 L152.792317,396.656249 C153.194659,396.253907 153.731119,396.052732 154.401693,396.052732 C154.982855,396.052732 155.541666,396.276258 156.078122,396.723306 C161.845053,402.043185 165.5332,405.843099 167.142576,408.123045 C167.45551,408.480686 167.611979,408.97244 167.611979,409.598308 C167.611979,410.134764 167.433159,410.648873 167.075519,411.140623 C166.404945,412.079425 165.264972,413.565863 163.655596,415.599936 C162.046224,417.634005 160.839194,419.209851 160.034506,420.327473 C161.19683,422.562717 162.113281,424.753255 162.783855,426.899088 L175.055339,428.776692 C175.636501,428.866104 176.1059,429.145507 176.46354,429.61491 C176.82118,430.08431 177,430.60959 177,431.190756 L177,431.190756 Z" id="Shape" fill-opacity="0.215664629" fill="#FFFFFF"></path>
                    <path d="M11,500 C11,500 -4.0035705,422.625379 2.49871616,395.35396 C3.51661244,391.084773 34.3406638,395.35396 34.3406638,395.35396 C34.3406638,395.35396 127.751926,478.043597 153.514698,478.043597 C159.836348,478.043597 172.907948,500 172.907948,500 L1049.04079,498.228272 L1049.04079,603 L11,603 L11,500 Z" id="Rectangle-16" fill="#FFFFFF"></path>
                    <g id="Group-3" transform="translate(432.000000, 157.000000)">
                        <path d="M56.0892102,109.906942 C37.2494722,144.94276 26,189.239575 26,237.406942 C26,315.12306 55.2852233,382.763151 98.4861075,417.686033 C146.046788,384.948023 179,313.846509 179,231.406942 C179,182.361438 167.336612,137.328901 147.872845,102 C150.2476,106.97972 151.597203,110.215378 151.597203,110.215378 C92.0379189,148.317409 60.3185578,110.215378 58.1908216,109.921935 C58.1908216,109.921935 58.1934146,109.916906 58.1985672,109.906942 L56.0892102,109.906942 Z M104,222 C123.882251,222 140,205.882251 140,186 C140,166.117749 123.882251,150 104,150 C84.117749,150 68,166.117749 68,186 C68,205.882251 84.117749,222 104,222 Z" id="Combined-Shape" fill="#435063"></path>
                        <path d="M87.4812384,81.3780422 C89.6089747,81.6714858 121.328336,119.773516 180.88762,81.6714858 C180.88762,81.6714858 159.207202,29.692904 136.736438,21.7739839 C118.21667,21.7739839 87.4812384,81.3780422 87.4812384,81.3780422 Z" id="Path-2-Copy" fill="#F25C00" transform="translate(134.184429, 60.184429) rotate(45.000000) translate(-134.184429, -60.184429) "></path>
                        <path d="M104,222 C123.882251,222 140,205.882251 140,186 C140,166.117749 123.882251,150 104,150 C84.117749,150 68,166.117749 68,186 C68,205.882251 84.117749,222 104,222 Z M104,213 C118.911688,213 131,200.911688 131,186 C131,171.088312 118.911688,159 104,159 C89.0883118,159 77,171.088312 77,186 C77,200.911688 89.0883118,213 104,213 Z" id="Combined-Shape-Copy-2" fill="#F25B00"></path>
                        <path d="M140,379.284036 L165.679911,429.062197 C165.679911,429.062197 172.481927,439.855077 177.714725,424.736583 C182.947524,409.618089 191.606218,358.108935 191.606218,358.108935 C191.606218,358.108935 193.994266,345.823992 183.965462,328.507847 C173.936657,311.191703 162.067352,294 162.067352,294 L140,379.284036 Z" id="Path-3" fill="#F25B00" transform="translate(165.927374, 363.397518) rotate(8.000000) translate(-165.927374, -363.397518) "></path>
                        <path d="M8,376.284036 L33.6799113,426.062197 C33.6799113,426.062197 40.4819269,436.855077 45.7147253,421.736583 C50.9475237,406.618089 59.6062183,355.108935 59.6062183,355.108935 C59.6062183,355.108935 61.9942659,342.823992 51.9654616,325.507847 C41.9366573,308.191703 30.0673516,291 30.0673516,291 L8,376.284036 Z" id="Path-3-Copy" fill="#F36B0F" transform="translate(33.927374, 360.397518) scale(-1, 1) rotate(6.000000) translate(-33.927374, -360.397518) "></path>
                        <path d="M100.180897,432.477123 C73.5922969,353.706212 102.771891,285.395523 102.771891,285.395523 L102.768006,285.670725 C102.916985,285.353747 103.056495,285.172894 103.180898,285.172894 C103.181711,285.172894 103.182525,285.172902 103.183339,285.172917 L103.180898,285 C103.180898,285 103.209407,285.066739 103.263829,285.198451 C103.561517,285.375743 103.934469,286.458065 104.313235,287.901084 C109.459843,301.777187 129.380734,363.589539 105.342647,433.340081 L105.333424,434.840053 C105.333424,434.840053 103.750194,435.828726 102.643184,435.828726 C101.750194,435.828726 100.180898,434.224243 100.180898,434.224243 L100.180898,432.477125 Z" id="Combined-Shape" fill="#F36B0F"></path>
                    </g>
                    <g id="Group" transform="translate(502.000000, 207.000000)">
                        <path d="M77.903058,327.285859 L67.9952071,290.309257 L144.188641,276.874298 L154.096492,313.850901 L77.903058,327.285859 Z M81.5403657,340.860477 L93.6180629,385.935056 C94.6195121,389.672515 92.3965305,393.515501 88.6698663,394.514058 C84.9356035,395.514651 81.0969582,393.297503 80.0951013,389.558523 L12.0528902,135.621534 C11.6859241,134.960319 11.4208905,134.228296 11.2824007,133.442881 C11.2177187,133.076051 11.1829128,132.710854 11.1762263,132.349779 L0.381937119,92.0649439 C-0.619512072,88.3274847 1.60346949,84.4844986 5.33013374,83.485942 C9.06439646,82.4853493 12.9030418,84.7024965 13.9048987,88.4414773 L23.482018,124.183773 L99.6754524,110.748815 L90.3819371,76.0649439 C89.3804879,72.3274847 91.6034695,68.4844986 95.3301337,67.485942 C99.0643965,66.4853493 102.903042,68.7024965 103.904899,72.4414773 L155.365858,264.496392 C156.037542,265.364575 156.514137,266.403227 156.717599,267.557119 C156.846368,268.287401 156.85673,269.011214 156.762546,269.708901 L183.618063,369.935056 C184.619512,373.672515 182.396531,377.515501 178.669866,378.514058 C174.935604,379.514651 171.096958,377.297503 170.095101,373.558523 L157.7338,327.425518 L81.5403657,340.860477 Z M64.3578995,276.73464 L54.4803336,239.871062 L130.673768,226.436104 L140.551334,263.299681 L64.3578995,276.73464 Z M50.8430259,226.296445 L40.8900599,189.15147 L117.083494,175.716512 L127.03646,212.861487 L50.8430259,226.296445 Z M37.2527522,175.576853 L27.1193257,137.75839 L103.31276,124.323432 L113.446187,162.141895 L37.2527522,175.576853 Z" id="Combined-Shape" fill="#2A2D36"></path>
                        <path d="M155.741563,13.6305712 L178.090174,35.9791825 L178.586521,35.4086113 L185.800381,37.8436094 L186.191167,37.4245423 L196.498645,47.0364206 C197.851401,46.9261718 199.249793,47.1214388 200.594161,47.664599 C205.202787,49.5266046 207.431921,54.765753 205.566648,59.3824666 L188.510316,101.598369 C186.647919,106.207963 181.403133,108.435733 176.793494,106.573318 C176.67492,106.525411 176.557921,106.475268 176.442526,106.422958 L140.015141,96.2402383 L130.660507,155.303074 C130.50641,156.276002 130.216765,157.193783 129.813933,158.040249 L141.686069,225.370475 C142.644186,230.804232 139.003435,235.98808 133.573445,236.945534 L132.793821,237.083002 C127.355225,238.041974 122.169718,234.414753 121.211546,228.980686 L109.412191,162.063223 L93.10191,159.479928 L79,176.894337 L79,218.429011 C79,223.94939 74.5207309,228.424542 68.9920273,228.424542 L68.0079727,228.424542 C62.480722,228.424542 58,223.948264 58,218.429011 L58,172.424542 L58.3471131,172.424542 L77.5659296,148.691281 C77.5541805,148.106033 77.5938169,147.511594 77.6886014,146.913149 L87.5438374,84.6896376 L56,56.2874388 L56.2347973,56.0266699 L52,49.7547305 L52,18.9311642 C52,13.6808019 56.2521413,9.42454229 61.5,9.42454229 C66.7467051,9.42454229 71,13.6770174 71,18.9338196 L71,42.8808449 L96.7516476,66.0677325 L143.618316,73.4906836 L143.574496,73.7673561 L176.596055,83.036792 L187.199586,56.7921307 L177,47.2808626 L177.335145,46.9214634 L174.568935,40.0269932 L174.800604,39.7606804 L152.324382,17.2844583 C151.981336,17.5664176 151.573634,17.8940107 151.082955,18.2820312 C143.5969,13.002127 138.810828,1.16347821 138.810828,1.16347821 L139.974307,-2.66453526e-14 C139.974307,-2.66453526e-14 153.624887,6.99997484 156.30278,13.002127 C156.092103,13.2332738 155.906551,13.4415278 155.741563,13.6305712 Z M181,46.6186034 L183.045995,44.4245423 L190.223287,51.1174754 L188.177292,53.3115365 L181,46.6186034 Z M184,43.6186034 L186.045995,41.4245423 L193.223287,48.1174754 L191.177292,50.3115365 L184,43.6186034 Z" id="Combined-Shape" fill="#FFFFFF"></path>
                        <ellipse id="Oval-4" fill="#FFFFFF" cx="124" cy="37" rx="25" ry="25"></ellipse>
                    </g>
                    <text id="SYSTEM-UNDER-MAINTEN" font-family="OpenSans-Semibold, Open Sans" font-size="40" font-weight="500" letter-spacing="1.34222221" fill="#FFFFFF">
                        <tspan x="212.259332" y="153"> SYSTEM UNDER MAINTENANCE</tspan>
                    </text>
                    <path d="M149.542133,464.290822 C144.447104,451.17346 131.700744,441.875 116.782613,441.875 C115.792373,441.875 114.811701,441.91597 113.842201,441.996307 C113.233167,436.50155 108.572105,432.228125 102.912482,432.228125 C100.921855,432.228125 99.0547604,432.75679 97.4440593,433.681319 C97.6649758,432.497811 97.7804878,431.277233 97.7804878,430.029687 C97.7804878,420.292102 90.7430109,412.197468 81.474517,410.550086 C81.5913785,409.486965 81.651363,408.406735 81.651363,407.3125 C81.651363,391.123653 68.5218082,378 52.3256815,378 C36.1295548,378 23,391.123653 23,407.3125 C23,423.501347 36.1295548,436.625 52.3256815,436.625 C54.6432797,436.625 56.8980856,436.356275 59.0606136,435.848296 C61.5465321,443.936111 69.0791666,449.815625 77.9856528,449.815625 C83.4335427,449.815625 88.3674083,447.615814 91.9466857,444.056379 C92.1157156,446.302889 92.9602928,448.361019 94.2779408,450.028383 C86.5610031,456.472735 81.651363,466.166139 81.651363,477.00625 C81.651363,496.408704 97.3801594,512.1375 116.782613,512.1375 C129.989156,512.1375 141.493683,504.850303 147.494565,494.077539 C149.874883,495.409496 152.619088,496.16875 155.540625,496.16875 C157.981658,496.16875 160.298893,495.638706 162.383515,494.687433 C162.326224,495.355884 162.296987,496.032342 162.296987,496.715625 C162.296987,507.834249 170.038579,517.14554 180.427843,519.557867 C180.07714,521.170436 179.892396,522.844903 179.892396,524.5625 C179.892396,537.513577 190.39604,548.0125 203.352941,548.0125 C209.71597,548.0125 215.487344,545.480462 219.713597,541.369422 C222.75536,542.809862 226.156567,543.615625 229.746055,543.615625 C238.956052,543.615625 246.926511,538.310918 250.766141,530.591494 C252.632067,533.155276 255.657186,534.821875 259.071736,534.821875 C261.25008,534.821875 263.269928,534.143582 264.931417,532.986772 C268.386748,542.601692 277.588683,549.478125 288.397418,549.478125 C297.014102,549.478125 304.609631,545.108 309.086628,538.464181 C312.495563,541.659091 317.080168,543.615625 322.121951,543.615625 C330.186811,543.615625 337.081872,538.609373 339.866392,531.53629 C344.573422,537.129755 351.627509,540.684375 359.512195,540.684375 C364.864491,540.684375 369.834047,539.04641 373.946516,536.244616 C376.30741,547.973155 386.672634,556.80625 399.101865,556.80625 C407.729786,556.80625 415.363138,552.549906 420.014931,546.023315 C424.939431,557.534125 436.371682,565.6 449.688666,565.6 C459.229299,565.6 467.802562,561.460059 473.708492,554.879377 C478.652308,557.958588 484.490627,559.7375 490.74462,559.7375 C500.11926,559.7375 508.559898,555.740364 514.453769,549.358135 C519.092133,553.961883 525.480607,556.80625 532.533716,556.80625 C540.867858,556.80625 548.274008,552.834827 552.961312,546.682027 C558.905869,556.277194 569.533301,562.66875 581.654232,562.66875 C591.146991,562.66875 599.723702,558.748449 605.85231,552.439214 C610.168428,562.751402 620.358215,569.996875 632.241033,569.996875 C637.859488,569.996875 643.099448,568.377074 647.519003,565.579185 C655.587389,580.432052 671.328649,590.515625 689.426112,590.515625 C704.286875,590.515625 717.558873,583.716371 726.298296,573.06035 C736.115422,584.634814 750.768983,591.98125 767.139168,591.98125 C796.697099,591.98125 820.658537,568.030583 820.658537,538.485937 C820.658537,537.634859 820.638653,536.788423 820.599325,535.947067 C821.56058,536.169776 822.562088,536.2875 823.591105,536.2875 C829.489884,536.2875 834.484718,532.418985 836.174812,527.08167 C840.359572,533.505804 847.608232,537.753125 855.849354,537.753125 C861.049333,537.753125 865.854177,536.062118 869.743512,533.200246 C876.831124,543.892859 888.977002,550.94375 902.770445,550.94375 C917.514743,550.94375 930.376497,542.887242 937.18991,530.938148 C941.434757,534.288134 946.795836,536.2875 952.624103,536.2875 C960.483638,536.2875 967.49359,532.65164 972.062316,526.970848 C979.589963,536.232262 991.075613,542.15 1003.94405,542.15 C1026.61862,542.15 1045,523.776885 1045,501.1125 C1045,478.448115 1026.61862,460.075 1003.94405,460.075 C985.30753,460.075 969.571242,472.486774 964.557427,489.491593 C961.013279,487.556283 956.947212,486.45625 952.624103,486.45625 C946.795836,486.45625 941.434757,488.455616 937.189907,491.805597 C930.376497,479.856508 917.514743,471.8 902.770445,471.8 C887.212261,471.8 873.750191,480.770496 867.278668,493.819254 C863.896799,491.929938 859.998885,490.853125 855.849354,490.853125 C843.233906,490.853125 832.944117,500.805983 832.410546,513.284483 C830.073242,511.184206 826.981482,509.90625 823.591105,509.90625 C820.065387,509.90625 816.862602,511.288272 814.49539,513.539909 C805.525198,496.561829 787.68409,484.990625 767.139168,484.990625 C748.595951,484.990625 732.255347,494.416891 722.651785,508.737031 C714.067828,500.390443 702.347547,495.25 689.426112,495.25 C672.201172,495.25 657.110715,504.384704 648.738902,518.072015 C644.077715,514.774944 638.385733,512.8375 632.241033,512.8375 C625.309606,512.8375 618.954244,515.302819 614.004706,519.404071 C609.883138,505.440734 596.959307,495.25 581.654232,495.25 C568.455587,495.25 557.027832,502.828675 551.488961,513.869883 C546.796559,508.732457 540.041702,505.509375 532.533716,505.509375 C527.095429,505.509375 522.052278,507.200395 517.901844,510.085077 C512.164501,501.161464 502.145219,495.25 490.74462,495.25 C481.203987,495.25 472.630724,499.389941 466.724793,505.970623 C461.780977,502.891412 455.942658,501.1125 449.688666,501.1125 C437.369164,501.1125 426.662626,508.015311 421.229103,518.162526 C416.768529,510.590628 408.528859,505.509375 399.101865,505.509375 C393.74957,505.509375 388.780013,507.14734 384.667545,509.949134 C382.30665,498.220595 371.941426,489.3875 359.512195,489.3875 C347.082243,489.3875 336.716537,498.22162 334.356435,509.951176 C331.045789,507.178624 326.778895,505.509375 322.121951,505.509375 C317.080168,505.509375 312.495563,507.465909 309.086624,510.660813 C304.609631,504.017 297.014102,499.646875 288.397418,499.646875 C277.588683,499.646875 268.386748,506.523308 264.931417,516.138228 C263.269928,514.981418 261.25008,514.303125 259.071736,514.303125 C256.755071,514.303125 254.617669,515.070294 252.899935,516.364332 C251.082738,505.220983 241.40811,496.715625 229.746055,496.715625 C223.383025,496.715625 217.611651,499.247663 213.385398,503.358703 C211.897168,502.653945 210.322895,502.101117 208.682624,501.720256 C209.033333,500.107689 209.218077,498.433222 209.218077,496.715625 C209.218077,483.764548 198.714434,473.265625 185.757532,473.265625 C184.241669,473.265625 182.759384,473.409327 181.323568,473.683845 C182.277913,472.055387 182.824964,470.159519 182.824964,468.135938 C182.824964,462.06512 177.901381,457.14375 171.827834,457.14375 C167.109734,457.14375 163.085593,460.113606 161.524428,464.285096 C159.669269,463.562922 157.651222,463.166667 155.540625,463.166667 C153.424456,463.166667 151.401327,463.565017 149.542133,464.290822 Z M253.2066,520.165625 C253.2066,518.871361 253.1017,517.601586 252.899935,516.364332 Z" id="Combined-Shape-Copy" fill="#E8E8E8"></path>
                    <path d="M149.542133,457.290822 C144.447104,444.17346 131.700744,434.875 116.782613,434.875 C115.792373,434.875 114.811701,434.91597 113.842201,434.996307 C113.233167,429.50155 108.572105,425.228125 102.912482,425.228125 C100.921855,425.228125 99.0547604,425.75679 97.4440593,426.681319 C97.6649758,425.497811 97.7804878,424.277233 97.7804878,423.029687 C97.7804878,413.292102 90.7430109,405.197468 81.474517,403.550086 C81.5913785,402.486965 81.651363,401.406735 81.651363,400.3125 C81.651363,384.123653 68.5218082,371 52.3256815,371 C36.1295548,371 23,384.123653 23,400.3125 C23,416.501347 36.1295548,429.625 52.3256815,429.625 C54.6432797,429.625 56.8980856,429.356275 59.0606136,428.848296 C61.5465321,436.936111 69.0791666,442.815625 77.9856528,442.815625 C83.4335427,442.815625 88.3674083,440.615814 91.9466857,437.056379 C92.1157156,439.302889 92.9602928,441.361019 94.2779408,443.028383 C86.5610031,449.472735 81.651363,459.166139 81.651363,470.00625 C81.651363,489.408704 97.3801594,505.1375 116.782613,505.1375 C129.989156,505.1375 141.493683,497.850303 147.494565,487.077539 C149.874883,488.409496 152.619088,489.16875 155.540625,489.16875 C157.981658,489.16875 160.298893,488.638706 162.383515,487.687433 C162.326224,488.355884 162.296987,489.032342 162.296987,489.715625 C162.296987,500.834249 170.038579,510.14554 180.427843,512.557867 C180.07714,514.170436 179.892396,515.844903 179.892396,517.5625 C179.892396,530.513577 190.39604,541.0125 203.352941,541.0125 C209.71597,541.0125 215.487344,538.480462 219.713597,534.369422 C222.75536,535.809862 226.156567,536.615625 229.746055,536.615625 C238.956052,536.615625 246.926511,531.310918 250.766141,523.591494 C252.632067,526.155276 255.657186,527.821875 259.071736,527.821875 C261.25008,527.821875 263.269928,527.143582 264.931417,525.986772 C268.386748,535.601692 277.588683,542.478125 288.397418,542.478125 C297.014102,542.478125 304.609631,538.108 309.086628,531.464181 C312.495563,534.659091 317.080168,536.615625 322.121951,536.615625 C330.186811,536.615625 337.081872,531.609373 339.866392,524.53629 C344.573422,530.129755 351.627509,533.684375 359.512195,533.684375 C364.864491,533.684375 369.834047,532.04641 373.946516,529.244616 C376.30741,540.973155 386.672634,549.80625 399.101865,549.80625 C407.729786,549.80625 415.363138,545.549906 420.014931,539.023315 C424.939431,550.534125 436.371682,558.6 449.688666,558.6 C459.229299,558.6 467.802562,554.460059 473.708492,547.879377 C478.652308,550.958588 484.490627,552.7375 490.74462,552.7375 C500.11926,552.7375 508.559898,548.740364 514.453769,542.358135 C519.092133,546.961883 525.480607,549.80625 532.533716,549.80625 C540.867858,549.80625 548.274008,545.834827 552.961312,539.682027 C558.905869,549.277194 569.533301,555.66875 581.654232,555.66875 C591.146991,555.66875 599.723702,551.748449 605.85231,545.439214 C610.168428,555.751402 620.358215,562.996875 632.241033,562.996875 C637.859488,562.996875 643.099448,561.377074 647.519003,558.579185 C655.587389,573.432052 671.328649,583.515625 689.426112,583.515625 C704.286875,583.515625 717.558873,576.716371 726.298296,566.06035 C736.115422,577.634814 750.768983,584.98125 767.139168,584.98125 C796.697099,584.98125 820.658537,561.030583 820.658537,531.485937 C820.658537,530.634859 820.638653,529.788423 820.599325,528.947067 C821.56058,529.169776 822.562088,529.2875 823.591105,529.2875 C829.489884,529.2875 834.484718,525.418985 836.174812,520.08167 C840.359572,526.505804 847.608232,530.753125 855.849354,530.753125 C861.049333,530.753125 865.854177,529.062118 869.743512,526.200246 C876.831124,536.892859 888.977002,543.94375 902.770445,543.94375 C917.514743,543.94375 930.376497,535.887242 937.18991,523.938148 C941.434757,527.288134 946.795836,529.2875 952.624103,529.2875 C960.483638,529.2875 967.49359,525.65164 972.062316,519.970848 C979.589963,529.232262 991.075613,535.15 1003.94405,535.15 C1026.61862,535.15 1045,516.776885 1045,494.1125 C1045,471.448115 1026.61862,453.075 1003.94405,453.075 C985.30753,453.075 969.571242,465.486774 964.557427,482.491593 C961.013279,480.556283 956.947212,479.45625 952.624103,479.45625 C946.795836,479.45625 941.434757,481.455616 937.189907,484.805597 C930.376497,472.856508 917.514743,464.8 902.770445,464.8 C887.212261,464.8 873.750191,473.770496 867.278668,486.819254 C863.896799,484.929938 859.998885,483.853125 855.849354,483.853125 C843.233906,483.853125 832.944117,493.805983 832.410546,506.284483 C830.073242,504.184206 826.981482,502.90625 823.591105,502.90625 C820.065387,502.90625 816.862602,504.288272 814.49539,506.539909 C805.525198,489.561829 787.68409,477.990625 767.139168,477.990625 C748.595951,477.990625 732.255347,487.416891 722.651785,501.737031 C714.067828,493.390443 702.347547,488.25 689.426112,488.25 C672.201172,488.25 657.110715,497.384704 648.738902,511.072015 C644.077715,507.774944 638.385733,505.8375 632.241033,505.8375 C625.309606,505.8375 618.954244,508.302819 614.004706,512.404071 C609.883138,498.440734 596.959307,488.25 581.654232,488.25 C568.455587,488.25 557.027832,495.828675 551.488961,506.869883 C546.796559,501.732457 540.041702,498.509375 532.533716,498.509375 C527.095429,498.509375 522.052278,500.200395 517.901844,503.085077 C512.164501,494.161464 502.145219,488.25 490.74462,488.25 C481.203987,488.25 472.630724,492.389941 466.724793,498.970623 C461.780977,495.891412 455.942658,494.1125 449.688666,494.1125 C437.369164,494.1125 426.662626,501.015311 421.229103,511.162526 C416.768529,503.590628 408.528859,498.509375 399.101865,498.509375 C393.74957,498.509375 388.780013,500.14734 384.667545,502.949134 C382.30665,491.220595 371.941426,482.3875 359.512195,482.3875 C347.082243,482.3875 336.716537,491.22162 334.356435,502.951176 C331.045789,500.178624 326.778895,498.509375 322.121951,498.509375 C317.080168,498.509375 312.495563,500.465909 309.086624,503.660813 C304.609631,497.017 297.014102,492.646875 288.397418,492.646875 C277.588683,492.646875 268.386748,499.523308 264.931417,509.138228 C263.269928,507.981418 261.25008,507.303125 259.071736,507.303125 C256.755071,507.303125 254.617669,508.070294 252.899935,509.364332 C251.082738,498.220983 241.40811,489.715625 229.746055,489.715625 C223.383025,489.715625 217.611651,492.247663 213.385398,496.358703 C211.897168,495.653945 210.322895,495.101117 208.682624,494.720256 C209.033333,493.107689 209.218077,491.433222 209.218077,489.715625 C209.218077,476.764548 198.714434,466.265625 185.757532,466.265625 C184.241669,466.265625 182.759384,466.409327 181.323568,466.683845 C182.277913,465.055387 182.824964,463.159519 182.824964,461.135938 C182.824964,455.06512 177.901381,450.14375 171.827834,450.14375 C167.109734,450.14375 163.085593,453.113606 161.524428,457.285096 C159.669269,456.562922 157.651222,456.166667 155.540625,456.166667 C153.424456,456.166667 151.401327,456.565017 149.542133,457.290822 Z M253.2066,513.165625 C253.2066,511.871361 253.1017,510.601586 252.899935,509.364332 Z" id="Combined-Shape" fill="#FFFFFF"></path>
                    <g id="Group-2" transform="translate(454.000000, 21.000000)" fill="#FFFFFF">
                        <text id="5" font-family="OpenSans-Semibold, Open Sans" font-size="70" font-weight="500" letter-spacing="2.34888887">
                            <tspan x="0.347528219" y="75">5</tspan>
                        </text>
                        <text id="4" font-family="OpenSans-Semibold, Open Sans" font-size="70" font-weight="500" letter-spacing="2.34888887">
                            <tspan x="115.347528" y="75">4</tspan>
                        </text>
                        <path d="M89.1428563,47.9285715 C89.1428563,44.9906988 88.1035143,42.4824204 86.0248327,40.4037388 C83.9461486,38.3250547 81.4378727,37.2857127 78.5,37.2857127 C75.5621273,37.2857127 73.0538489,38.3250547 70.9751673,40.4037388 C68.8964832,42.4824204 67.8571437,44.9906988 67.8571437,47.9285715 C67.8571437,50.8664417 68.8964832,53.3747201 70.9751673,55.4534017 C73.0538489,57.5320858 75.5621273,58.5714278 78.5,58.5714278 C81.4378727,58.5714278 83.9461486,57.5320858 86.0248327,55.4534017 C88.1035143,53.3747201 89.1428563,50.8664417 89.1428563,47.9285715 L89.1428563,47.9285715 Z M110.428572,43.397042 L110.428572,52.6263949 C110.428572,52.9589828 110.317708,53.2777137 110.095981,53.5825875 C109.874254,53.8874614 109.597097,54.0676148 109.264509,54.1230453 L101.573382,55.2871078 C101.046782,56.7837606 100.506324,58.0448271 99.9520091,59.0703121 C100.922061,60.456099 102.404855,62.3684892 104.400389,64.8074776 C104.677549,65.1400655 104.816126,65.4865128 104.816126,65.8468172 C104.816126,66.207124 104.691406,66.5258549 104.441963,66.8030122 C103.693637,67.8284948 102.321708,69.3251476 100.32617,71.2929683 C98.3306358,73.2607864 97.0279934,74.244698 96.4182481,74.244698 C96.0856578,74.244698 95.7253534,74.1199775 95.3373326,73.8705341 L89.6001671,69.3805781 C88.3806742,70.0180423 87.1196052,70.5446406 85.8169628,70.9603779 C85.3735115,74.7297228 84.9716337,77.3072911 84.6113268,78.693078 C84.4173164,79.4691197 83.9184321,79.8571405 83.1146765,79.8571405 L73.8853235,79.8571405 C73.4973027,79.8571405 73.1577838,79.7393486 72.8667695,79.5037647 C72.5757526,79.2681808 72.4163872,78.9702379 72.3886707,78.6099311 L71.2246082,70.9603779 C69.8665353,70.5169266 68.6193258,70.0041853 67.4829798,69.4221541 L61.6210939,73.8705341 C61.3439365,74.1199775 60.9974892,74.244698 60.5817519,74.244698 C60.193731,74.244698 59.8472837,74.092261 59.5424098,73.7873872 C56.0502223,70.62779 53.7636709,68.2996651 52.6827578,66.8030122 C52.4887449,66.5258549 52.3917409,66.207124 52.3917409,65.8468172 C52.3917409,65.5142293 52.5026044,65.1954984 52.7243313,64.8906246 C53.1400661,64.3085933 53.8468203,63.3870432 54.8445864,62.1259743 C55.8423549,60.8649078 56.5906801,59.8879273 57.0895644,59.1950326 C56.3412392,57.8092432 55.773065,56.4373133 55.3850441,55.0792404 L47.7770645,53.9567514 C47.4167601,53.9013184 47.1257433,53.728096 46.9040188,53.4370816 C46.6822919,53.1460647 46.5714285,52.8204054 46.5714285,52.4600985 L46.5714285,43.2307481 C46.5714285,42.8981577 46.6822919,42.5794268 46.9040188,42.274553 C47.1257433,41.9696791 47.3890436,41.7895257 47.6939175,41.7340952 L55.4266176,40.5700327 C55.8146385,39.2951068 56.3550962,38.0201809 57.0479909,36.7452549 C55.9393589,35.1654576 54.4565655,33.2530674 52.5996084,31.0080894 C52.322451,30.6755016 52.1838735,30.3429112 52.1838735,30.0103234 C52.1838735,29.733166 52.308594,29.4144326 52.5580349,29.0541283 C53.2786461,28.0563597 54.6436475,26.5666379 56.6530416,24.5849602 C58.6624357,22.6032826 59.9720041,21.6124426 60.5817519,21.6124426 C60.9420562,21.6124426 61.302363,21.7510225 61.6626674,22.0281799 L67.3998329,26.4765624 C68.6193258,25.8390982 69.8803948,25.3124999 71.1830347,24.8967626 C71.6264885,21.1274178 72.0283663,18.5498494 72.3886707,17.1640625 C72.5826811,16.3880208 73.0815654,16 73.8853235,16 L83.1146765,16 C83.5026973,16 83.8422162,16.1177919 84.1332305,16.3533758 C84.4242474,16.5889597 84.5836128,16.8869051 84.6113268,17.2472095 L85.7753893,24.8967626 C87.1334622,25.3402139 88.3806742,25.8529577 89.5170202,26.4349889 L95.4204796,21.9866064 C95.6699205,21.7371655 96.0025108,21.6124426 96.4182481,21.6124426 C96.7785525,21.6124426 97.1249998,21.7510225 97.4575877,22.0281799 C101.032925,25.3263569 103.319474,27.6821984 104.317242,29.0957018 C104.511253,29.3174287 104.608259,29.6223025 104.608259,30.0103234 C104.608259,30.3429112 104.497396,30.6616446 104.275669,30.966516 C103.859931,31.5485472 103.15318,32.4700973 102.155411,33.7311662 C101.157645,34.9922327 100.40932,35.9692133 99.9104356,36.6621079 C100.631044,38.0478973 101.199219,39.4059702 101.614956,40.7363267 L109.222936,41.9003892 C109.58324,41.9558221 109.874254,42.1290446 110.095981,42.4200614 C110.317708,42.7110758 110.428572,43.0367352 110.428572,43.397042 L110.428572,43.397042 Z" id="Shape"></path>
                    </g>
                </g>
            </g>
        </g>
    </g>
</svg>
