<?xml version="1.0" standalone="no"?>
<!DOCTYPE svg PUBLIC "-//W3C//DTD SVG 20010904//EN"
 "http://www.w3.org/TR/2001/REC-SVG-20010904/DTD/svg10.dtd">
<svg version="1.0" xmlns="http://www.w3.org/2000/svg"
 width="700.000000pt" height="700.000000pt" viewBox="0 0 700.000000 700.000000"
 preserveAspectRatio="xMidYMid meet">
<metadata>
Created by potrace 1.11, written by Peter Selinger 2001-2013
</metadata>
<g transform="translate(0.000000,700.000000) scale(0.100000,-0.100000)"
fill="#000000" stroke="none">
<path d="M3330 6994 c-242 -20 -310 -28 -410 -45 -717 -124 -1343 -442 -1863
-948 -588 -572 -951 -1325 -1038 -2156 -16 -154 -16 -536 0 -690 78 -740 367
-1405 852 -1960 582 -667 1389 -1082 2284 -1176 154 -16 536 -16 690 0 895 94
1702 509 2284 1176 485 555 774 1220 852 1960 16 154 16 536 0 690 -33 312
-109 636 -213 905 -477 1235 -1608 2099 -2918 2230 -113 11 -447 20 -520 14z
m605 -148 c636 -91 1189 -327 1680 -719 129 -103 409 -383 512 -512 360 -452
600 -981 696 -1540 36 -208 42 -284 42 -575 0 -291 -6 -367 -42 -575 -96 -559
-336 -1088 -696 -1540 -103 -129 -383 -409 -512 -512 -503 -401 -1056 -634
-1725 -725 -128 -17 -652 -17 -780 0 -669 91 -1222 324 -1725 725 -129 103
-409 383 -512 512 -401 503 -634 1056 -725 1725 -17 128 -17 652 0 780 91 669
324 1222 725 1725 103 129 383 409 512 512 503 401 1113 657 1725 722 58 6
121 13 140 15 85 10 581 -4 685 -18z"/>
<path d="M3380 6653 c-335 -13 -667 -79 -976 -194 -1064 -395 -1838 -1334
-2018 -2449 -53 -326 -53 -694 0 -1020 153 -946 730 -1767 1580 -2248 300
-170 670 -299 1024 -356 326 -53 694 -53 1020 0 1263 204 2288 1169 2568 2419
86 383 99 814 36 1205 -179 1107 -942 2040 -1996 2441 -385 146 -828 219
-1238 202z m50 -272 l0 -130 -42 -5 c-24 -3 -83 -8 -132 -11 -295 -20 -644
-116 -935 -256 -79 -38 -145 -68 -146 -67 -16 25 -125 222 -125 227 0 11 238
123 372 176 211 82 482 149 698 174 52 6 109 13 125 15 17 1 65 4 108 5 l77 1
0 -129z m486 104 c242 -34 470 -94 689 -182 139 -55 335 -148 335 -159 0 -5
-118 -214 -126 -223 -2 -2 -66 25 -141 62 -287 137 -637 232 -929 252 -49 3
-108 8 -131 11 l-43 5 0 131 0 131 123 -7 c67 -3 167 -13 223 -21z m1396 -577
c217 -164 430 -377 596 -596 77 -102 167 -240 161 -246 -9 -9 -215 -126 -221
-126 -4 0 -33 39 -64 87 -185 281 -481 576 -760 758 -49 32 -90 59 -92 61 -5
3 9 29 75 141 l54 92 77 -49 c42 -27 120 -82 174 -122z m-3309 39 c32 -54 57
-100 57 -102 0 -2 -39 -30 -87 -61 -282 -186 -582 -487 -760 -764 -32 -49 -62
-90 -67 -90 -8 0 -210 113 -224 126 -2 1 25 47 61 101 221 334 511 626 843
848 78 52 100 63 109 53 7 -7 37 -57 68 -111z m884 -324 c67 -31 146 -141 159
-220 15 -98 -93 -250 -205 -288 -43 -14 -76 -17 -163 -13 -121 5 -109 12 -123
-72 -3 -19 -16 -57 -29 -85 -52 -113 -132 -170 -236 -170 -81 0 -133 25 -174
83 -59 83 -40 221 39 290 62 55 122 77 222 80 l92 4 6 46 c18 149 49 226 113
284 50 45 67 54 134 73 58 15 115 11 165 -12z m1516 -62 c215 -74 484 -279
532 -404 32 -84 7 -287 -62 -506 -19 -60 -36 -94 -62 -121 -64 -67 -156 -73
-213 -13 -38 40 -47 70 -59 206 -12 138 -18 153 -101 234 -58 56 -136 97 -220
115 -50 10 -60 9 -163 -25 -120 -40 -188 -46 -236 -22 -67 35 -90 135 -48 205
31 51 65 85 149 150 246 188 350 226 483 181z m1805 -738 c179 -374 277 -746
298 -1130 l7 -123 -131 0 -131 0 -5 43 c-3 23 -8 82 -11 131 -20 294 -116 644
-255 933 l-68 142 111 65 c62 36 115 65 118 65 3 1 33 -56 67 -126z m-5235 48
c59 -35 107 -64 107 -66 0 -1 -29 -62 -64 -136 -136 -282 -231 -635 -251 -925
-3 -49 -8 -108 -11 -131 l-5 -43 -131 0 -131 0 7 123 c16 306 86 621 203 912
63 158 150 338 161 332 4 -2 55 -32 115 -66z m4749 -596 l59 -129 -151 -361
c-83 -198 -150 -365 -150 -371 0 -6 18 -16 40 -23 22 -6 40 -14 40 -17 0 -2
-14 -39 -32 -80 -31 -74 -32 -76 -62 -71 -17 3 -38 8 -47 12 -14 5 -26 -21
-70 -149 -30 -86 -57 -156 -62 -156 -26 0 -217 75 -217 85 0 7 22 76 49 153
l50 141 -42 14 c-23 8 -41 18 -41 23 1 5 7 44 14 87 12 72 15 78 34 72 12 -3
35 -8 51 -11 l31 -6 84 392 85 391 130 69 c72 38 134 68 139 67 5 -2 36 -61
68 -132z m-2003 15 c279 -80 492 -294 573 -576 33 -113 33 -315 0 -428 -82
-284 -294 -496 -578 -578 -113 -33 -315 -33 -428 0 -282 81 -497 294 -576 573
-12 43 -24 119 -27 179 -21 402 251 755 652 844 98 22 284 15 384 -14z m-2090
-315 c20 -114 81 -645 81 -711 0 -27 -4 -32 -31 -38 -77 -15 -66 -36 -157 297
-67 243 -137 546 -129 554 1 0 47 10 102 20 67 13 102 15 106 8 3 -5 16 -64
28 -130z m-875 -587 c3 -24 8 -83 11 -132 20 -290 115 -643 251 -925 35 -74
64 -137 64 -141 0 -8 -207 -130 -221 -130 -13 0 -100 178 -162 335 -117 291
-187 606 -203 913 l-7 122 131 0 131 0 5 -42z m5752 -80 c-21 -391 -131 -798
-312 -1160 l-54 -107 -112 65 c-62 36 -114 67 -116 68 -1 2 29 68 67 147 140
291 236 640 256 935 3 49 8 108 11 132 l5 42 131 0 131 0 -7 -122z m-4736
-193 c89 -46 95 -168 10 -219 -70 -41 -174 7 -180 84 -4 51 1 69 27 100 42 50
90 62 143 35z m2757 -389 c2 -1 -2 -105 -9 -232 l-11 -229 -43 -71 c-24 -39
-44 -74 -44 -77 0 -4 101 -7 225 -7 124 0 225 3 225 7 0 3 -20 38 -44 77 l-44
71 -8 238 -7 239 29 -4 29 -3 13 -215 13 -214 76 -121 c98 -154 179 -315 194
-381 11 -47 10 -56 -8 -86 -46 -80 -170 -108 -468 -108 -216 1 -324 14 -392
49 -51 25 -83 65 -83 101 0 68 77 230 207 435 l70 111 12 209 c7 115 15 213
18 217 4 7 40 2 50 -6z m-1618 -442 c64 -20 119 -39 123 -43 4 -4 -8 -58 -27
-120 -38 -123 -41 -141 -24 -141 6 0 62 -16 124 -35 l113 -35 -41 -133 c-22
-72 -41 -133 -42 -135 -1 -1 -59 15 -128 37 l-126 38 -35 -112 c-20 -62 -36
-118 -36 -124 0 -6 -6 -11 -14 -11 -13 0 -244 68 -257 76 -4 2 10 59 31 126
21 68 35 126 32 129 -4 4 -56 21 -117 39 -60 18 -114 36 -118 40 -8 7 58 245
72 262 4 4 61 -10 129 -31 67 -22 124 -36 126 -32 2 3 20 59 40 124 20 64 42
117 47 117 6 0 64 -16 128 -36z m-1696 -304 c178 -277 478 -578 760 -764 48
-31 87 -59 87 -62 0 -4 -116 -209 -126 -223 -5 -6 -146 86 -246 161 -276 209
-542 494 -718 770 l-49 77 112 64 c62 36 114 65 117 66 3 0 31 -40 63 -89z
m4775 -5 l82 -47 -21 -36 c-12 -21 -54 -82 -93 -137 -213 -302 -515 -591 -818
-785 l-78 -49 -14 22 c-39 63 -116 200 -116 205 0 4 41 33 90 65 277 179 578
478 764 761 l57 87 32 -19 c18 -11 69 -41 115 -67z m-3403 -1065 c228 -78 472
-131 671 -145 49 -3 108 -8 132 -11 l42 -5 0 -131 0 -131 -122 7 c-295 16
-611 84 -886 191 -134 53 -372 165 -372 176 0 6 76 141 116 206 14 22 14 22
156 -47 79 -38 197 -87 263 -110z m2290 63 c33 -59 61 -111 63 -115 5 -11
-175 -98 -333 -161 -291 -117 -606 -187 -912 -203 l-123 -7 0 131 0 131 43 5
c23 3 80 8 127 11 290 20 658 119 925 250 72 35 135 64 140 64 6 0 37 -47 70
-106z"/>
<path d="M2695 5528 c-76 -41 -108 -106 -120 -244 l-7 -71 67 -13 c92 -17 176
-8 225 24 46 30 80 90 80 141 0 60 -46 132 -102 161 -32 17 -115 18 -143 2z"/>
<path d="M2350 5132 c-70 -7 -93 -16 -125 -43 -49 -43 -63 -95 -39 -144 54
-114 204 -92 252 37 10 29 22 74 25 100 l6 46 -47 4 c-26 1 -58 2 -72 0z"/>
<path d="M4185 5476 c-39 -18 -125 -74 -191 -124 -160 -120 -199 -172 -174
-231 11 -28 46 -51 76 -51 8 0 73 19 145 42 l130 42 67 -17 c105 -28 181 -68
244 -131 95 -93 108 -119 119 -238 14 -154 19 -179 45 -205 32 -32 74 -30 108
4 37 37 51 74 92 238 41 167 48 288 20 347 -36 75 -205 213 -353 287 -167 84
-219 90 -328 37z m179 -116 c11 -11 19 -32 19 -50 0 -69 -84 -99 -130 -46 -27
32 -29 53 -7 84 31 44 79 49 118 12z m315 -216 c12 -15 21 -37 21 -49 0 -12
-9 -34 -21 -49 -41 -52 -129 -19 -129 48 0 69 87 103 129 50z"/>
<path d="M5525 4271 l-80 -38 -88 -374 c-48 -206 -87 -378 -87 -384 0 -10 119
-49 127 -42 2 3 73 162 157 353 l154 349 -44 88 c-24 48 -48 87 -52 87 -4 0
-43 -18 -87 -39z m63 -108 c13 -25 -161 -571 -190 -595 -27 -24 -36 -23 -44 7
-4 16 24 112 91 307 101 298 118 330 143 281z"/>
<path d="M5156 3414 c-4 -15 -3 -30 1 -34 4 -5 73 -27 152 -51 139 -41 144
-42 157 -24 8 10 14 24 14 29 0 6 -66 31 -148 55 -81 24 -152 45 -158 48 -7 2
-15 -8 -18 -23z"/>
<path d="M5191 3170 l-40 -121 27 -10 c76 -29 73 -32 118 100 l41 121 -50 15
c-28 8 -52 15 -53 15 -1 0 -20 -54 -43 -120z"/>
<path d="M3273 4016 c-42 -19 -65 -57 -65 -105 1 -46 15 -73 53 -95 94 -55
207 38 165 137 -25 61 -94 89 -153 63z"/>
<path d="M3673 4016 c-74 -33 -88 -123 -29 -182 38 -38 85 -45 134 -20 48 25
70 88 48 139 -25 61 -94 89 -153 63z"/>
<path d="M2820 3389 c0 -23 31 -128 51 -175 75 -169 244 -319 425 -378 165
-54 389 -30 543 57 157 90 281 249 327 419 26 98 104 88 -666 88 -490 0 -680
-3 -680 -11z"/>
<path d="M4356 2032 c-38 -61 -93 -173 -107 -221 -13 -42 -12 -44 14 -67 50
-43 94 -48 382 -48 284 0 328 5 379 45 23 18 26 26 20 53 -9 43 -56 145 -99
217 l-36 59 -265 0 -264 0 -24 -38z"/>
</g>
</svg>
